P3
70 70
255
0 63 0
0 63 0
0 42 0
0 127 0
0 85 0
0 31 0
0 85 0
0 85 0
0 42 0
0 25 0
0 36 0
0 36 0
0 63 0
0 36 0
0 31 0
0 36 0
0 63 0
0 85 0
0 36 0
0 51 0
0 51 0
0 51 0
0 21 0
0 42 0
0 42 0
0 127 0
0 23 0
0 36 0
0 28 0
0 127 0
0 63 0
0 42 0
0 42 0
0 51 0
0 63 0
0 63 0
0 31 0
0 51 0
0 36 0
0 63 0
0 23 0
0 42 0
0 36 0
0 31 0
0 85 0
0 42 0
0 85 0
0 51 0
0 51 0
0 42 0
0 36 0
0 63 0
0 36 0
0 51 0
0 63 0
0 36 0
0 42 0
0 63 0
0 31 0
0 31 0
0 51 0
0 42 0
0 42 0
0 25 0
0 63 0
0 42 0
0 51 0
0 51 0
0 127 0
0 85 0
0 42 0
0 36 0
0 85 0
0 51 0
0 31 0
0 51 0
0 85 0
0 63 0
0 51 0
0 42 0
0 51 0
0 42 0
0 31 0
0 127 0
0 63 0
0 31 0
0 42 0
0 36 0
0 85 0
0 63 0
0 42 0
0 63 0
0 36 0
0 85 0
0 63 0
0 36 0
0 25 0
0 127 0
0 28 0
0 19 0
0 31 0
0 127 0
0 51 0
0 63 0
0 63 0
0 28 0
0 28 0
0 31 0
0 85 0
0 28 0
0 63 0
0 85 0
0 36 0
0 63 0
0 63 0
0 36 0
0 63 0
0 51 0
0 28 0
0 51 0
0 31 0
0 51 0
0 85 0
0 42 0
0 51 0
0 42 0
0 127 0
0 36 0
0 36 0
0 255 0
0 31 0
0 51 0
0 42 0
0 28 0
0 36 0
0 127 0
0 127 0
0 28 0
0 63 0
0 28 0
0 63 0
0 42 0
0 36 0
0 42 0
0 51 0
0 42 0
0 36 0
0 28 0
0 25 0
0 42 0
0 28 0
0 127 0
0 127 0
0 255 0
0 85 0
0 42 0
0 36 0
0 51 0
0 85 0
0 36 0
0 85 0
241 255 162
0 42 0
0 51 0
0 51 0
0 85 0
0 36 0
0 63 0
0 127 0
0 36 0
0 31 0
0 31 0
0 127 0
0 42 0
0 42 0
0 31 0
0 36 0
0 23 0
0 51 0
0 36 0
0 51 0
0 36 0
0 36 0
0 42 0
0 42 0
0 255 0
0 28 0
0 51 0
0 42 0
0 42 0
0 31 0
0 25 0
0 51 0
0 42 0
0 31 0
0 63 0
0 28 0
0 63 0
0 51 0
0 51 0
0 42 0
0 42 0
0 36 0
0 51 0
0 63 0
0 127 0
0 63 0
0 85 0
0 31 0
0 85 0
0 42 0
0 51 0
0 25 0
0 51 0
0 31 0
0 21 0
0 63 0
0 28 0
0 36 0
0 51 0
0 85 0
0 42 0
0 31 0
0 63 0
0 42 0
0 31 0
0 21 0
0 36 0
0 63 0
0 51 0
0 31 0
0 51 0
0 42 0
0 85 0
0 36 0
0 42 0
0 51 0
0 63 0
0 31 0
0 63 0
0 42 0
0 63 0
0 42 0
0 28 0
0 63 0
0 42 0
0 31 0
0 25 0
0 127 0
0 28 0
0 63 0
0 36 0
0 127 0
0 31 0
0 31 0
0 28 0
0 36 0
0 36 0
0 31 0
0 36 0
0 51 0
0 25 0
0 42 0
0 42 0
0 127 0
0 63 0
0 63 0
0 51 0
0 31 0
0 42 0
0 51 0
0 42 0
0 42 0
0 36 0
0 63 0
0 85 0
0 63 0
0 42 0
0 42 0
0 51 0
0 63 0
0 28 0
0 25 0
0 85 0
0 31 0
0 51 0
0 36 0
0 28 0
0 85 0
0 25 0
0 127 0
0 63 0
0 42 0
0 85 0
0 36 0
0 31 0
0 85 0
0 28 0
0 31 0
0 127 0
0 63 0
0 28 0
0 85 0
0 42 0
0 42 0
0 63 0
0 36 0
0 25 0
0 42 0
0 36 0
0 36 0
0 36 0
0 51 0
0 85 0
0 51 0
0 36 0
0 127 0
0 51 0
0 25 0
0 255 0
0 23 0
0 63 0
0 51 0
0 28 0
0 28 0
0 36 0
0 85 0
0 85 0
0 63 0
0 85 0
0 36 0
0 255 0
0 85 0
0 23 0
0 51 0
0 31 0
0 31 0
0 28 0
0 42 0
0 36 0
0 28 0
0 42 0
0 23 0
0 85 0
0 36 0
0 42 0
0 42 0
0 36 0
0 36 0
0 36 0
0 36 0
0 63 0
0 36 0
0 31 0
0 23 0
0 51 0
0 51 0
0 36 0
0 21 0
0 127 0
0 31 0
0 63 0
0 85 0
0 63 0
0 63 0
0 36 0
0 31 0
0 36 0
0 42 0
0 42 0
0 127 0
0 25 0
0 31 0
0 28 0
0 36 0
0 28 0
0 51 0
0 127 0
0 23 0
0 51 0
0 127 0
0 42 0
0 63 0
0 63 0
0 28 0
0 36 0
0 36 0
0 31 0
0 42 0
0 63 0
0 42 0
0 51 0
0 51 0
0 63 0
0 25 0
0 51 0
0 42 0
0 42 0
0 42 0
0 36 0
0 42 0
0 63 0
0 42 0
0 85 0
0 36 0
0 51 0
0 42 0
0 36 0
0 42 0
0 42 0
0 25 0
0 63 0
0 25 0
0 42 0
0 31 0
0 36 0
0 51 0
0 63 0
0 25 0
0 63 0
0 127 0
0 36 0
0 36 0
0 36 0
0 51 0
0 36 0
0 28 0
0 127 0
0 42 0
0 63 0
0 63 0
0 51 0
0 28 0
0 36 0
0 127 0
0 42 0
0 63 0
0 63 0
0 28 0
0 31 0
0 23 0
0 36 0
0 127 0
0 85 0
0 36 0
0 63 0
0 42 0
0 28 0
0 42 0
0 42 0
0 28 0
0 36 0
0 42 0
0 51 0
0 63 0
0 63 0
0 31 0
0 36 0
0 36 0
0 36 0
0 28 0
0 42 0
0 31 0
0 51 0
0 85 0
0 31 0
0 51 0
0 28 0
0 85 0
0 63 0
0 85 0
0 42 0
0 36 0
0 42 0
0 42 0
0 51 0
0 51 0
0 85 0
0 31 0
0 51 0
0 23 0
0 127 0
0 51 0
0 85 0
0 28 0
0 51 0
0 31 0
0 36 0
0 31 0
0 51 0
0 127 0
0 51 0
0 51 0
0 85 0
0 51 0
0 51 0
0 63 0
0 36 0
0 51 0
0 31 0
0 31 0
0 42 0
0 63 0
0 28 0
0 31 0
0 127 0
0 63 0
0 31 0
0 42 0
0 36 0
0 42 0
0 85 0
0 42 0
0 51 0
0 42 0
0 85 0
0 42 0
0 31 0
0 51 0
0 31 0
0 63 0
0 25 0
0 31 0
0 63 0
0 51 0
0 63 0
0 42 0
0 42 0
0 36 0
0 31 0
0 85 0
0 42 0
0 28 0
0 63 0
0 25 0
0 36 0
0 21 0
0 42 0
0 51 0
0 36 0
0 36 0
0 31 0
0 23 0
0 85 0
0 63 0
0 25 0
0 42 0
0 42 0
0 25 0
0 36 0
0 36 0
0 63 0
0 51 0
0 36 0
0 28 0
0 51 0
0 255 0
0 42 0
0 31 0
0 51 0
0 51 0
0 42 0
0 85 0
0 85 0
0 51 0
0 85 0
0 63 0
0 31 0
0 63 0
0 42 0
0 36 0
0 42 0
0 42 0
0 42 0
0 31 0
0 85 0
0 51 0
0 42 0
0 28 0
0 63 0
0 31 0
0 36 0
0 42 0
0 36 0
0 31 0
0 63 0
0 255 0
0 19 0
0 28 0
0 51 0
0 31 0
0 42 0
0 63 0
0 42 0
0 28 0
0 85 0
0 63 0
0 25 0
0 28 0
0 25 0
0 51 0
0 51 0
0 63 0
0 51 0
0 42 0
0 63 0
0 28 0
0 36 0
0 42 0
0 36 0
0 42 0
0 36 0
0 21 0
0 42 0
0 51 0
0 63 0
0 36 0
0 42 0
0 36 0
0 63 0
0 63 0
0 63 0
0 36 0
0 25 0
0 63 0
0 42 0
0 25 0
0 42 0
0 42 0
0 28 0
0 51 0
0 28 0
0 42 0
0 51 0
0 85 0
0 28 0
0 51 0
0 51 0
0 42 0
0 36 0
0 28 0
0 28 0
0 127 0
0 127 0
0 36 0
0 255 0
0 31 0
0 23 0
0 31 0
0 36 0
0 51 0
0 18 0
0 63 0
0 42 0
0 42 0
0 85 0
0 36 0
0 63 0
0 28 0
0 51 0
0 21 0
0 127 0
0 25 0
0 85 0
0 28 0
0 42 0
0 63 0
0 23 0
0 42 0
0 63 0
0 25 0
0 127 0
0 42 0
0 36 0
0 42 0
0 31 0
0 255 0
0 51 0
0 42 0
0 36 0
0 25 0
0 36 0
0 85 0
0 36 0
0 63 0
0 42 0
0 31 0
0 42 0
0 31 0
0 36 0
0 31 0
0 28 0
0 255 0
0 51 0
0 63 0
0 51 0
0 63 0
0 51 0
0 42 0
0 51 0
0 31 0
0 51 0
0 36 0
0 28 0
0 42 0
0 42 0
0 51 0
0 31 0
0 51 0
0 28 0
0 31 0
0 63 0
0 31 0
0 31 0
0 255 0
0 31 0
0 51 0
0 51 0
0 21 0
0 36 0
0 127 0
0 42 0
0 25 0
0 85 0
0 42 0
0 36 0
0 28 0
0 51 0
0 28 0
0 36 0
0 85 0
0 63 0
0 127 0
0 51 0
0 25 0
0 36 0
0 36 0
0 36 0
0 51 0
0 63 0
0 42 0
0 85 0
0 31 0
0 23 0
0 42 0
0 36 0
0 63 0
0 51 0
0 36 0
0 63 0
0 127 0
0 42 0
0 31 0
0 63 0
0 28 0
0 42 0
0 127 0
0 31 0
0 42 0
0 85 0
0 63 0
0 63 0
0 63 0
0 36 0
0 36 0
0 36 0
0 63 0
0 63 0
0 25 0
0 85 0
0 21 0
0 63 0
0 25 0
0 28 0
0 63 0
0 85 0
0 85 0
0 36 0
0 42 0
0 51 0
0 51 0
0 42 0
0 85 0
0 28 0
0 51 0
0 42 0
0 42 0
0 127 0
0 51 0
0 51 0
0 51 0
0 36 0
0 28 0
0 36 0
0 31 0
0 31 0
0 63 0
0 63 0
0 36 0
0 51 0
0 42 0
0 42 0
0 23 0
0 63 0
0 85 0
0 31 0
0 42 0
0 36 0
0 42 0
0 63 0
0 63 0
0 31 0
0 36 0
0 51 0
0 36 0
0 28 0
0 28 0
0 31 0
0 51 0
0 63 0
0 28 0
0 42 0
0 31 0
0 42 0
0 85 0
0 36 0
0 85 0
0 31 0
0 36 0
0 36 0
0 51 0
0 85 0
0 42 0
0 42 0
0 51 0
0 36 0
0 36 0
0 127 0
0 31 0
0 19 0
0 51 0
0 21 0
0 51 0
0 36 0
0 42 0
0 23 0
0 23 0
0 85 0
0 31 0
0 28 0
0 31 0
0 63 0
0 31 0
0 36 0
0 85 0
0 31 0
0 127 0
0 28 0
0 36 0
0 85 0
0 36 0
0 31 0
0 63 0
0 42 0
0 36 0
0 51 0
0 63 0
0 51 0
0 51 0
0 63 0
0 63 0
0 63 0
0 63 0
0 42 0
0 36 0
0 31 0
0 36 0
0 36 0
0 25 0
0 85 0
0 31 0
0 36 0
0 42 0
0 36 0
0 51 0
0 28 0
0 42 0
0 85 0
0 42 0
0 127 0
0 85 0
0 42 0
0 23 0
0 21 0
0 19 0
0 51 0
0 42 0
0 63 0
0 63 0
0 28 0
0 127 0
0 51 0
0 127 0
0 42 0
0 28 0
0 31 0
0 85 0
0 31 0
0 31 0
0 85 0
0 42 0
0 42 0
0 42 0
0 51 0
0 36 0
0 51 0
0 28 0
0 42 0
0 63 0
0 18 0
0 28 0
241 255 162
0 36 0
0 36 0
0 36 0
0 51 0
0 42 0
0 42 0
0 255 0
0 42 0
0 63 0
0 42 0
0 51 0
0 63 0
0 42 0
0 51 0
0 85 0
0 36 0
0 42 0
0 25 0
0 51 0
0 42 0
0 63 0
0 85 0
0 42 0
0 63 0
0 63 0
0 63 0
0 51 0
0 36 0
0 42 0
0 36 0
0 85 0
0 36 0
0 85 0
0 42 0
0 51 0
0 42 0
0 85 0
0 23 0
0 85 0
0 51 0
0 255 0
0 42 0
0 51 0
0 127 0
0 63 0
0 51 0
0 28 0
0 85 0
0 85 0
0 127 0
0 51 0
0 42 0
0 51 0
0 42 0
0 127 0
0 42 0
0 63 0
0 36 0
0 36 0
0 63 0
0 85 0
0 36 0
0 36 0
0 127 0
0 36 0
0 51 0
0 42 0
0 51 0
0 36 0
0 63 0
0 51 0
0 25 0
0 51 0
0 63 0
0 23 0
0 42 0
0 42 0
0 31 0
0 36 0
0 51 0
0 42 0
0 31 0
0 31 0
0 25 0
0 42 0
0 28 0
0 63 0
0 127 0
0 42 0
0 85 0
0 42 0
0 31 0
0 31 0
0 63 0
0 51 0
0 63 0
0 63 0
0 63 0
0 63 0
0 63 0
0 51 0
0 63 0
0 42 0
0 127 0
0 28 0
0 31 0
0 28 0
0 63 0
0 51 0
0 63 0
0 42 0
0 36 0
0 18 0
0 51 0
0 42 0
0 85 0
0 42 0
0 42 0
0 36 0
0 85 0
0 63 0
0 42 0
0 85 0
0 51 0
0 36 0
0 63 0
0 31 0
0 42 0
0 51 0
0 63 0
0 36 0
0 31 0
0 85 0
0 85 0
0 28 0
0 31 0
0 28 0
0 42 0
0 42 0
0 31 0
0 42 0
0 255 0
0 85 0
0 51 0
0 63 0
0 25 0
0 42 0
0 63 0
0 42 0
0 31 0
0 42 0
0 42 0
0 42 0
0 25 0
0 63 0
0 63 0
0 25 0
0 28 0
0 42 0
0 31 0
0 51 0
0 36 0
0 51 0
0 31 0
0 31 0
0 63 0
0 51 0
0 63 0
0 42 0
0 23 0
0 36 0
0 85 0
0 42 0
0 51 0
0 19 0
0 31 0
0 42 0
0 31 0
0 85 0
0 36 0
0 28 0
0 28 0
0 42 0
0 31 0
0 255 0
0 127 0
0 36 0
0 25 0
0 63 0
0 42 0
0 63 0
0 31 0
0 51 0
0 28 0
0 51 0
0 127 0
0 31 0
0 31 0
0 63 0
0 31 0
0 127 0
0 42 0
0 36 0
0 85 0
0 127 0
0 31 0
0 36 0
0 63 0
0 63 0
0 23 0
0 36 0
0 36 0
0 28 0
0 85 0
0 51 0
0 42 0
0 63 0
0 25 0
0 36 0
0 25 0
0 51 0
0 31 0
0 36 0
0 51 0
0 51 0
0 51 0
0 19 0
0 51 0
0 36 0
0 31 0
0 36 0
0 36 0
0 31 0
0 31 0
0 28 0
0 36 0
0 42 0
0 85 0
0 28 0
0 51 0
0 85 0
0 42 0
0 36 0
0 31 0
0 36 0
0 42 0
0 63 0
0 255 0
0 42 0
0 51 0
0 42 0
0 36 0
0 23 0
0 42 0
0 42 0
0 63 0
0 42 0
0 42 0
0 51 0
0 36 0
0 21 0
0 51 0
0 63 0
0 28 0
0 85 0
0 42 0
0 31 0
0 36 0
0 63 0
0 51 0
0 36 0
0 85 0
0 42 0
0 36 0
0 63 0
0 51 0
0 31 0
0 31 0
0 51 0
0 42 0
0 36 0
0 127 0
0 36 0
0 28 0
0 42 0
0 63 0
0 36 0
0 31 0
0 36 0
0 63 0
0 31 0
0 36 0
0 255 0
0 28 0
0 255 0
0 85 0
0 85 0
0 36 0
0 63 0
0 36 0
0 127 0
0 31 0
0 42 0
0 63 0
0 63 0
0 42 0
0 42 0
0 23 0
0 51 0
0 85 0
0 31 0
0 51 0
0 51 0
0 36 0
0 21 0
0 36 0
0 63 0
0 51 0
0 42 0
0 85 0
0 28 0
0 31 0
0 127 0
0 51 0
0 63 0
0 63 0
0 85 0
0 63 0
0 127 0
0 42 0
0 85 0
0 21 0
0 63 0
0 42 0
0 36 0
0 36 0
0 63 0
0 85 0
0 127 0
0 42 0
0 25 0
0 127 0
0 63 0
0 63 0
0 42 0
0 36 0
0 36 0
0 36 0
0 51 0
0 63 0
0 23 0
0 42 0
0 21 0
0 42 0
0 51 0
0 42 0
0 42 0
0 36 0
0 28 0
0 19 0
0 51 0
0 36 0
0 31 0
0 51 0
0 21 0
0 63 0
0 42 0
0 31 0
0 36 0
0 63 0
0 31 0
0 36 0
0 85 0
0 63 0
0 42 0
0 23 0
0 51 0
0 42 0
0 42 0
0 42 0
0 63 0
0 127 0
0 51 0
241 255 162
0 51 0
0 85 0
0 51 0
0 28 0
0 85 0
0 63 0
0 36 0
0 51 0
0 25 0
0 36 0
0 28 0
0 51 0
0 42 0
0 25 0
0 42 0
0 51 0
0 42 0
0 85 0
0 36 0
0 42 0
0 42 0
0 25 0
0 51 0
0 85 0
0 36 0
0 51 0
0 18 0
0 42 0
0 127 0
0 42 0
0 28 0
0 85 0
0 42 0
0 63 0
0 42 0
0 42 0
0 23 0
0 31 0
0 23 0
0 127 0
0 25 0
0 42 0
0 255 0
0 42 0
0 42 0
0 36 0
0 85 0
0 63 0
0 63 0
0 36 0
0 42 0
0 42 0
0 51 0
0 42 0
0 63 0
0 31 0
0 28 0
0 31 0
0 127 0
0 51 0
0 36 0
0 42 0
0 31 0
0 36 0
0 31 0
0 36 0
0 42 0
0 19 0
0 85 0
0 36 0
0 127 0
0 51 0
0 25 0
0 255 0
0 255 0
0 28 0
0 51 0
0 42 0
0 42 0
0 42 0
0 85 0
0 255 0
0 42 0
0 31 0
0 42 0
0 51 0
0 42 0
0 42 0
0 51 0
0 25 0
0 36 0
0 42 0
0 28 0
0 42 0
0 25 0
0 31 0
0 42 0
0 28 0
0 31 0
0 31 0
0 36 0
0 85 0
0 42 0
0 25 0
0 42 0
0 36 0
0 42 0
0 85 0
0 25 0
0 28 0
0 255 0
0 63 0
0 28 0
0 36 0
0 42 0
0 51 0
0 19 0
0 63 0
0 127 0
0 31 0
0 63 0
0 28 0
0 63 0
0 19 0
0 31 0
0 127 0
0 31 0
0 36 0
0 42 0
0 42 0
0 31 0
0 51 0
0 36 0
0 31 0
0 85 0
0 31 0
0 36 0
0 51 0
0 31 0
0 51 0
0 51 0
0 85 0
0 28 0
0 51 0
0 51 0
0 28 0
0 127 0
0 63 0
0 42 0
0 31 0
0 28 0
0 63 0
0 25 0
0 85 0
0 63 0
0 63 0
0 42 0
0 85 0
0 51 0
0 42 0
0 51 0
0 42 0
0 23 0
0 42 0
0 31 0
0 31 0
0 63 0
0 51 0
0 63 0
0 36 0
0 31 0
0 63 0
0 28 0
0 51 0
0 36 0
0 63 0
0 63 0
0 85 0
0 36 0
0 63 0
0 25 0
0 42 0
0 85 0
0 19 0
0 51 0
0 36 0
0 51 0
0 36 0
0 63 0
0 85 0
0 51 0
0 36 0
0 85 0
0 127 0
0 25 0
0 42 0
0 63 0
0 25 0
0 85 0
0 25 0
0 63 0
0 51 0
0 36 0
0 63 0
0 63 0
0 51 0
0 31 0
0 28 0
0 31 0
0 31 0
0 63 0
0 36 0
0 51 0
0 36 0
0 31 0
0 63 0
0 42 0
0 36 0
0 31 0
0 85 0
0 21 0
0 63 0
0 63 0
0 42 0
0 28 0
0 36 0
0 51 0
0 42 0
0 51 0
0 23 0
0 63 0
0 36 0
0 255 0
0 42 0
0 85 0
0 51 0
0 42 0
0 25 0
0 63 0
0 127 0
0 28 0
0 36 0
0 31 0
0 85 0
0 36 0
0 85 0
0 63 0
0 255 0
0 25 0
0 28 0
0 85 0
0 28 0
0 127 0
0 127 0
0 31 0
0 51 0
0 63 0
0 31 0
0 42 0
0 51 0
0 31 0
0 51 0
0 51 0
0 51 0
0 51 0
0 25 0
0 36 0
0 42 0
0 31 0
0 51 0
0 127 0
0 36 0
0 51 0
0 31 0
0 19 0
0 36 0
0 63 0
0 42 0
0 36 0
0 36 0
0 36 0
0 42 0
0 63 0
0 31 0
0 85 0
0 85 0
0 25 0
0 42 0
0 36 0
0 42 0
0 42 0
0 36 0
0 25 0
0 51 0
0 36 0
0 25 0
0 28 0
0 51 0
0 21 0
0 85 0
0 42 0
0 42 0
0 85 0
0 28 0
0 31 0
0 85 0
0 28 0
0 51 0
0 21 0
0 63 0
0 42 0
0 42 0
0 36 0
0 63 0
0 42 0
0 51 0
0 42 0
0 42 0
0 51 0
0 85 0
0 36 0
0 31 0
0 85 0
0 127 0
0 23 0
0 85 0
0 21 0
0 51 0
0 36 0
0 85 0
0 51 0
0 127 0
0 51 0
0 63 0
0 127 0
0 42 0
0 25 0
0 63 0
0 51 0
0 36 0
0 63 0
0 31 0
0 42 0
0 85 0
0 31 0
0 42 0
0 28 0
0 36 0
0 42 0
0 28 0
0 28 0
0 51 0
0 85 0
0 63 0
0 28 0
241 255 162
0 31 0
0 42 0
0 85 0
0 42 0
0 25 0
0 25 0
0 63 0
0 51 0
0 28 0
0 42 0
0 63 0
0 23 0
0 63 0
0 51 0
0 42 0
0 51 0
0 63 0
0 36 0
0 51 0
0 28 0
0 36 0
0 42 0
0 127 0
0 51 0
0 31 0
0 42 0
0 31 0
0 21 0
0 51 0
0 36 0
0 42 0
0 127 0
0 42 0
0 42 0
0 85 0
0 51 0
0 31 0
0 51 0
0 51 0
0 42 0
0 42 0
0 31 0
0 28 0
0 51 0
0 36 0
0 31 0
0 21 0
0 23 0
0 31 0
0 36 0
0 31 0
0 42 0
0 36 0
0 51 0
0 28 0
0 63 0
0 51 0
0 31 0
0 255 0
0 36 0
0 42 0
0 85 0
0 85 0
0 127 0
0 28 0
0 255 0
0 51 0
0 23 0
0 36 0
0 63 0
0 36 0
0 63 0
0 31 0
0 51 0
0 63 0
0 63 0
0 42 0
0 85 0
0 28 0
0 51 0
0 36 0
0 63 0
0 42 0
0 36 0
0 51 0
0 36 0
0 85 0
0 63 0
0 51 0
0 36 0
0 36 0
0 25 0
0 31 0
0 28 0
0 36 0
0 85 0
0 42 0
0 36 0
0 85 0
0 42 0
0 36 0
0 42 0
0 28 0
0 63 0
0 63 0
0 85 0
0 28 0
0 25 0
0 127 0
0 127 0
0 51 0
0 36 0
0 63 0
0 85 0
0 31 0
0 42 0
0 63 0
0 127 0
0 51 0
0 51 0
0 36 0
0 127 0
0 31 0
0 85 0
0 42 0
0 85 0
0 28 0
0 85 0
0 31 0
0 63 0
0 51 0
0 21 0
0 23 0
0 51 0
0 42 0
0 63 0
0 85 0
0 51 0
0 28 0
0 36 0
0 31 0
0 31 0
0 36 0
0 63 0
0 42 0
0 36 0
0 25 0
0 42 0
0 36 0
0 31 0
0 42 0
0 31 0
0 85 0
0 36 0
0 42 0
0 85 0
0 42 0
0 42 0
0 42 0
0 127 0
0 28 0
0 31 0
0 42 0
0 63 0
0 36 0
0 42 0
0 19 0
0 51 0
0 63 0
0 42 0
0 85 0
0 127 0
0 42 0
0 42 0
0 85 0
0 63 0
0 42 0
0 28 0
0 85 0
0 25 0
0 31 0
0 63 0
0 31 0
0 127 0
0 63 0
0 36 0
0 63 0
0 42 0
0 42 0
0 85 0
0 21 0
0 85 0
0 36 0
0 85 0
0 51 0
0 28 0
0 63 0
0 31 0
0 63 0
0 51 0
0 42 0
0 51 0
0 85 0
0 51 0
0 63 0
0 31 0
0 51 0
0 23 0
0 85 0
0 28 0
0 85 0
0 36 0
0 42 0
0 63 0
0 25 0
0 42 0
0 51 0
0 36 0
0 42 0
0 28 0
0 42 0
0 36 0
0 42 0
0 31 0
0 51 0
0 31 0
0 51 0
0 36 0
0 36 0
0 23 0
0 63 0
0 85 0
0 127 0
0 63 0
0 127 0
0 63 0
0 63 0
0 127 0
0 31 0
0 63 0
0 42 0
0 127 0
0 51 0
0 51 0
0 36 0
0 51 0
0 25 0
0 42 0
0 85 0
0 63 0
0 51 0
0 85 0
0 42 0
0 23 0
0 25 0
0 36 0
0 31 0
0 36 0
0 31 0
0 63 0
0 51 0
0 63 0
0 51 0
0 63 0
0 63 0
0 51 0
0 42 0
0 51 0
0 28 0
0 63 0
0 51 0
0 42 0
0 28 0
0 42 0
0 85 0
0 31 0
0 42 0
0 85 0
0 21 0
0 51 0
0 85 0
0 28 0
0 31 0
0 28 0
0 51 0
0 85 0
0 42 0
0 21 0
0 28 0
0 28 0
0 63 0
0 127 0
0 51 0
0 127 0
0 51 0
0 51 0
0 85 0
0 36 0
0 51 0
0 63 0
0 36 0
0 51 0
0 42 0
0 42 0
0 28 0
0 28 0
0 51 0
0 63 0
0 28 0
0 127 0
0 63 0
0 36 0
0 42 0
0 28 0
0 63 0
0 36 0
0 51 0
0 28 0
0 36 0
0 19 0
0 127 0
0 42 0
0 31 0
0 31 0
0 36 0
0 28 0
0 42 0
0 63 0
0 42 0
0 36 0
0 31 0
0 63 0
0 31 0
0 31 0
0 51 0
0 51 0
0 42 0
0 42 0
0 36 0
0 28 0
0 42 0
0 42 0
0 42 0
0 36 0
0 85 0
0 25 0
0 23 0
0 85 0
0 63 0
0 31 0
0 51 0
0 51 0
0 85 0
0 25 0
0 63 0
0 31 0
0 51 0
0 36 0
0 23 0
0 36 0
0 25 0
0 85 0
0 42 0
0 51 0
0 36 0
0 51 0
0 36 0
0 28 0
0 31 0
0 63 0
0 63 0
0 51 0
0 42 0
0 51 0
0 28 0
0 31 0
0 51 0
0 51 0
0 31 0
0 42 0
0 51 0
0 63 0
0 63 0
0 42 0
0 42 0
0 23 0
0 36 0
0 42 0
0 63 0
0 36 0
0 51 0
0 51 0
0 36 0
0 127 0
0 127 0
0 85 0
0 28 0
0 51 0
0 42 0
0 51 0
0 51 0
0 85 0
241 255 162
0 63 0
0 36 0
0 42 0
0 63 0
0 36 0
0 63 0
0 51 0
0 36 0
0 36 0
0 36 0
0 36 0
0 31 0
0 127 0
0 63 0
0 36 0
0 63 0
0 36 0
0 63 0
0 127 0
0 31 0
0 31 0
0 36 0
0 51 0
0 51 0
0 25 0
0 31 0
0 31 0
0 36 0
0 42 0
0 255 0
0 42 0
0 28 0
0 25 0
0 63 0
0 25 0
0 51 0
0 36 0
0 85 0
0 19 0
0 28 0
0 25 0
0 51 0
0 42 0
0 31 0
0 36 0
0 85 0
0 42 0
0 51 0
0 25 0
0 127 0
0 36 0
0 36 0
0 63 0
0 63 0
0 42 0
0 31 0
0 63 0
0 25 0
0 51 0
0 63 0
0 36 0
0 63 0
0 85 0
0 42 0
0 42 0
0 36 0
0 25 0
0 36 0
0 63 0
0 42 0
0 23 0
0 25 0
0 63 0
0 31 0
0 25 0
0 51 0
0 51 0
0 85 0
0 31 0
0 31 0
0 31 0
0 36 0
0 25 0
0 42 0
0 51 0
0 36 0
0 63 0
0 63 0
0 127 0
0 31 0
0 31 0
0 36 0
0 63 0
0 42 0
0 63 0
0 36 0
0 255 0
0 31 0
0 23 0
0 51 0
0 63 0
0 85 0
0 28 0
0 85 0
0 127 0
0 63 0
0 42 0
0 51 0
0 42 0
0 28 0
0 63 0
0 31 0
0 42 0
0 51 0
0 63 0
0 25 0
0 25 0
0 28 0
0 42 0
0 85 0
0 85 0
0 127 0
0 51 0
0 42 0
0 36 0
0 42 0
0 42 0
0 63 0
0 51 0
0 42 0
0 25 0
0 36 0
0 63 0
0 51 0
0 36 0
0 42 0
0 25 0
0 36 0
0 85 0
0 51 0
0 31 0
0 23 0
0 63 0
0 31 0
0 36 0
0 21 0
0 42 0
0 25 0
0 31 0
0 42 0
0 51 0
0 28 0
0 28 0
0 63 0
0 21 0
0 36 0
0 51 0
0 25 0
0 255 0
0 23 0
0 36 0
0 31 0
0 85 0
0 36 0
0 51 0
0 85 0
0 36 0
0 51 0
0 25 0
0 36 0
0 36 0
0 21 0
0 25 0
0 85 0
0 36 0
0 63 0
0 31 0
0 51 0
0 63 0
0 63 0
0 28 0
0 63 0
0 28 0
0 28 0
0 36 0
0 28 0
0 51 0
0 51 0
0 25 0
0 42 0
0 36 0
0 51 0
0 28 0
0 31 0
0 127 0
0 63 0
0 63 0
0 51 0
0 42 0
0 25 0
0 42 0
0 36 0
0 31 0
0 28 0
0 36 0
0 23 0
0 31 0
0 25 0
0 42 0
0 31 0
0 36 0
0 31 0
0 42 0
0 42 0
0 31 0
0 51 0
0 127 0
0 36 0
0 36 0
0 36 0
0 31 0
0 51 0
0 42 0
0 36 0
0 18 0
0 31 0
0 42 0
0 85 0
0 36 0
0 36 0
0 63 0
0 255 0
0 63 0
0 63 0
0 51 0
0 127 0
0 63 0
0 28 0
0 51 0
0 63 0
0 85 0
0 85 0
0 36 0
0 31 0
0 63 0
0 19 0
0 63 0
0 28 0
0 36 0
0 42 0
0 31 0
0 23 0
0 51 0
0 42 0
0 36 0
0 51 0
0 36 0
0 42 0
0 42 0
0 42 0
0 28 0
0 36 0
0 42 0
0 51 0
0 51 0
0 42 0
0 51 0
0 51 0
0 36 0
0 42 0
0 63 0
0 63 0
0 36 0
0 51 0
0 23 0
0 31 0
0 51 0
0 63 0
0 42 0
0 51 0
0 127 0
0 36 0
0 51 0
0 51 0
0 51 0
0 25 0
0 36 0
0 23 0
0 31 0
0 63 0
0 42 0
0 28 0
0 36 0
0 51 0
0 51 0
0 51 0
0 25 0
0 36 0
0 85 0
0 28 0
0 42 0
0 51 0
0 31 0
0 36 0
0 31 0
0 36 0
0 36 0
0 42 0
0 36 0
0 42 0
0 127 0
0 85 0
0 36 0
0 63 0
0 42 0
0 36 0
0 85 0
0 42 0
0 63 0
0 51 0
0 63 0
0 28 0
0 36 0
0 36 0
0 28 0
0 51 0
0 23 0
0 85 0
0 31 0
0 85 0
0 25 0
0 63 0
0 23 0
0 18 0
0 63 0
0 63 0
0 51 0
0 36 0
0 63 0
0 51 0
0 51 0
0 23 0
0 63 0
0 51 0
0 42 0
0 255 0
0 42 0
0 36 0
0 42 0
0 36 0
0 25 0
0 42 0
0 25 0
0 36 0
0 63 0
0 85 0
0 63 0
0 36 0
0 42 0
0 51 0
0 28 0
0 85 0
0 31 0
0 36 0
0 19 0
0 63 0
0 23 0
0 85 0
0 25 0
0 25 0
0 51 0
0 36 0
0 36 0
0 36 0
0 28 0
0 63 0
0 63 0
0 23 0
0 51 0
0 51 0
0 23 0
0 51 0
0 42 0
0 42 0
0 63 0
0 63 0
0 31 0
0 42 0
0 25 0
0 23 0
0 36 0
0 63 0
0 28 0
0 42 0
0 63 0
0 42 0
0 31 0
0 51 0
0 42 0
0 51 0
0 36 0
0 42 0
0 85 0
0 28 0
0 85 0
0 42 0
0 31 0
0 31 0
0 51 0
0 63 0
0 36 0
0 36 0
0 31 0
0 127 0
0 25 0
0 63 0
0 42 0
0 85 0
0 28 0
0 51 0
0 31 0
0 85 0
0 85 0
0 36 0
0 63 0
0 42 0
0 25 0
0 63 0
0 63 0
0 63 0
0 51 0
0 42 0
0 63 0
0 36 0
0 21 0
0 51 0
0 36 0
0 36 0
0 25 0
0 28 0
0 42 0
0 28 0
0 51 0
0 42 0
0 36 0
0 31 0
0 51 0
0 63 0
0 36 0
0 42 0
0 51 0
0 51 0
0 19 0
0 36 0
0 42 0
0 28 0
0 85 0
0 51 0
0 42 0
0 36 0
0 36 0
0 28 0
0 25 0
0 36 0
0 36 0
0 51 0
0 23 0
0 51 0
0 21 0
0 31 0
0 127 0
0 42 0
0 63 0
0 85 0
0 85 0
0 63 0
0 42 0
0 255 0
0 51 0
0 63 0
0 31 0
0 63 0
0 127 0
0 28 0
0 28 0
0 28 0
0 51 0
0 36 0
0 85 0
0 63 0
0 42 0
0 51 0
0 51 0
0 31 0
0 42 0
0 63 0
0 23 0
0 31 0
0 42 0
0 51 0
0 42 0
0 85 0
0 28 0
0 21 0
0 25 0
0 51 0
0 85 0
0 51 0
0 31 0
0 85 0
0 51 0
0 31 0
0 42 0
0 127 0
0 63 0
0 51 0
0 31 0
0 25 0
0 25 0
0 31 0
0 63 0
0 36 0
0 28 0
0 31 0
0 36 0
0 63 0
0 63 0
0 25 0
0 42 0
0 51 0
0 51 0
0 42 0
0 28 0
0 63 0
0 36 0
0 127 0
0 21 0
0 21 0
0 31 0
0 42 0
0 21 0
0 36 0
0 23 0
0 23 0
0 51 0
0 36 0
0 51 0
0 28 0
0 36 0
0 36 0
0 63 0
0 63 0
0 42 0
0 28 0
0 51 0
0 63 0
0 42 0
0 31 0
0 25 0
0 63 0
0 21 0
0 31 0
0 31 0
0 51 0
0 36 0
0 31 0
0 85 0
0 21 0
0 85 0
0 42 0
0 28 0
0 21 0
0 51 0
0 63 0
0 42 0
0 42 0
0 85 0
0 63 0
0 42 0
0 28 0
0 42 0
0 31 0
0 63 0
0 42 0
0 255 0
0 25 0
0 42 0
0 42 0
0 21 0
0 63 0
0 31 0
0 36 0
0 31 0
0 25 0
0 28 0
0 51 0
0 28 0
0 36 0
0 42 0
0 85 0
0 85 0
0 63 0
0 31 0
0 63 0
0 42 0
0 31 0
0 31 0
0 28 0
0 63 0
0 28 0
0 255 0
0 51 0
0 51 0
0 51 0
0 63 0
0 31 0
0 25 0
0 25 0
0 63 0
0 42 0
0 36 0
0 36 0
0 63 0
0 63 0
0 51 0
0 63 0
0 51 0
0 36 0
0 42 0
0 31 0
0 23 0
0 51 0
0 51 0
0 28 0
0 28 0
0 42 0
0 42 0
0 28 0
0 127 0
0 51 0
0 63 0
0 51 0
0 255 0
0 255 0
0 85 0
0 85 0
0 42 0
0 18 0
0 42 0
0 23 0
0 255 0
0 25 0
0 51 0
0 36 0
0 36 0
0 36 0
0 63 0
0 31 0
0 28 0
0 31 0
0 36 0
0 28 0
0 23 0
0 42 0
0 42 0
0 42 0
0 23 0
0 42 0
0 25 0
0 31 0
0 28 0
0 36 0
0 42 0
0 36 0
0 21 0
0 31 0
0 23 0
0 28 0
0 28 0
0 51 0
0 23 0
0 31 0
0 42 0
0 36 0
0 42 0
0 21 0
0 42 0
0 51 0
0 42 0
0 127 0
0 42 0
0 28 0
0 25 0
0 36 0
0 51 0
0 51 0
0 42 0
0 63 0
0 42 0
0 85 0
0 51 0
0 51 0
0 51 0
0 36 0
0 31 0
0 36 0
0 51 0
0 21 0
0 36 0
0 63 0
0 42 0
0 31 0
0 42 0
0 63 0
0 28 0
0 63 0
0 42 0
0 127 0
0 28 0
0 36 0
0 36 0
0 36 0
0 85 0
0 51 0
0 25 0
0 31 0
0 42 0
0 255 0
0 36 0
0 31 0
0 63 0
0 28 0
0 31 0
0 51 0
0 127 0
0 63 0
0 36 0
0 42 0
0 127 0
0 51 0
0 127 0
0 28 0
0 28 0
0 85 0
0 63 0
0 51 0
0 42 0
0 51 0
0 42 0
0 25 0
0 127 0
0 42 0
0 36 0
0 51 0
0 85 0
0 127 0
0 25 0
0 127 0
0 31 0
0 51 0
0 63 0
0 127 0
0 127 0
0 85 0
0 42 0
0 127 0
0 51 0
0 63 0
0 36 0
0 63 0
0 51 0
0 63 0
0 25 0
0 28 0
0 51 0
0 63 0
0 51 0
0 42 0
0 23 0
0 23 0
0 36 0
0 42 0
0 42 0
0 63 0
0 51 0
0 31 0
0 51 0
0 28 0
0 85 0
0 51 0
0 63 0
0 85 0
0 42 0
0 85 0
0 63 0
0 127 0
0 127 0
0 63 0
0 28 0
0 36 0
0 36 0
0 85 0
0 31 0
0 63 0
0 28 0
0 28 0
0 28 0
0 23 0
0 28 0
0 42 0
0 28 0
0 42 0
0 23 0
0 23 0
0 28 0
0 63 0
0 42 0
0 42 0
0 21 0
0 63 0
0 51 0
0 36 0
0 28 0
0 63 0
0 63 0
0 42 0
0 42 0
0 85 0
0 63 0
0 42 0
0 36 0
0 42 0
0 51 0
0 51 0
0 42 0
0 85 0
0 51 0
0 85 0
0 36 0
0 85 0
0 51 0
0 63 0
0 42 0
0 127 0
0 51 0
0 51 0
0 42 0
0 36 0
0 28 0
0 31 0
0 85 0
0 36 0
0 28 0
0 23 0
0 28 0
0 42 0
0 42 0
0 42 0
0 51 0
0 25 0
0 31 0
0 36 0
0 36 0
0 31 0
0 255 0
0 31 0
0 28 0
0 15 0
0 85 0
0 42 0
0 51 0
0 63 0
0 85 0
0 42 0
0 51 0
0 36 0
0 127 0
0 36 0
0 51 0
0 85 0
0 42 0
0 42 0
0 63 0
0 85 0
0 42 0
0 85 0
0 42 0
0 51 0
0 85 0
0 63 0
0 28 0
0 36 0
0 51 0
0 127 0
0 51 0
0 255 0
0 42 0
0 51 0
0 63 0
0 85 0
0 31 0
0 63 0
0 31 0
0 51 0
0 42 0
0 85 0
0 85 0
0 42 0
0 85 0
0 36 0
0 51 0
0 63 0
0 51 0
0 85 0
0 63 0
0 51 0
0 42 0
0 51 0
0 255 0
0 36 0
0 36 0
0 42 0
0 51 0
0 28 0
0 63 0
0 42 0
0 42 0
0 63 0
0 127 0
0 36 0
0 127 0
0 51 0
0 25 0
0 85 0
0 18 0
241 255 162
0 36 0
0 36 0
0 42 0
0 36 0
0 85 0
0 28 0
0 42 0
0 63 0
0 42 0
0 23 0
0 51 0
0 28 0
0 19 0
0 51 0
0 42 0
0 42 0
0 23 0
0 31 0
0 63 0
0 31 0
0 28 0
0 127 0
0 51 0
0 31 0
0 42 0
0 31 0
0 42 0
0 51 0
0 42 0
0 28 0
0 42 0
0 255 0
0 36 0
0 21 0
0 63 0
0 31 0
0 85 0
0 127 0
0 255 0
0 51 0
0 127 0
0 51 0
0 42 0
0 28 0
0 36 0
0 51 0
0 63 0
0 42 0
0 28 0
0 23 0
0 63 0
0 25 0
0 63 0
0 42 0
0 85 0
0 36 0
0 127 0
0 42 0
0 51 0
0 42 0
0 42 0
0 36 0
0 28 0
0 25 0
0 63 0
0 42 0
0 63 0
0 36 0
0 25 0
0 63 0
0 51 0
0 127 0
0 51 0
0 42 0
0 36 0
0 36 0
0 42 0
0 31 0
0 36 0
0 42 0
0 51 0
0 51 0
0 51 0
0 19 0
0 31 0
0 28 0
0 51 0
0 36 0
0 36 0
0 63 0
0 42 0
0 63 0
0 127 0
0 255 0
0 28 0
0 63 0
0 51 0
0 28 0
0 63 0
0 63 0
0 51 0
0 23 0
0 28 0
0 25 0
0 31 0
0 23 0
0 36 0
0 42 0
0 63 0
0 42 0
0 28 0
0 127 0
0 36 0
0 19 0
0 25 0
0 42 0
0 51 0
0 51 0
0 31 0
0 31 0
0 23 0
0 63 0
0 21 0
0 42 0
0 63 0
0 42 0
0 31 0
0 23 0
0 51 0
0 51 0
0 31 0
0 31 0
0 63 0
0 31 0
0 28 0
0 36 0
0 255 0
0 36 0
0 63 0
0 63 0
0 42 0
0 21 0
0 23 0
0 25 0
0 51 0
0 42 0
0 28 0
0 42 0
0 28 0
0 42 0
0 255 0
0 51 0
0 85 0
0 127 0
0 42 0
0 51 0
0 85 0
0 36 0
0 42 0
0 85 0
0 36 0
0 36 0
0 42 0
0 28 0
0 42 0
0 51 0
0 63 0
0 42 0
0 23 0
0 28 0
0 31 0
0 36 0
0 25 0
0 63 0
0 51 0
0 25 0
0 51 0
0 36 0
0 36 0
0 63 0
0 25 0
0 85 0
0 51 0
0 31 0
0 85 0
0 42 0
0 36 0
0 31 0
0 25 0
0 31 0
0 42 0
0 36 0
0 25 0
0 25 0
0 42 0
0 19 0
0 51 0
0 28 0
0 51 0
0 31 0
0 85 0
0 28 0
0 51 0
0 28 0
0 63 0
0 127 0
0 42 0
0 85 0
0 31 0
0 18 0
0 85 0
0 42 0
0 127 0
0 28 0
0 28 0
0 36 0
0 42 0
0 25 0
0 31 0
0 36 0
0 42 0
0 36 0
0 51 0
0 31 0
0 31 0
241 255 162
0 36 0
0 51 0
0 25 0
0 36 0
0 51 0
0 36 0
0 42 0
0 31 0
0 36 0
0 85 0
0 42 0
0 42 0
0 28 0
0 51 0
0 63 0
0 63 0
0 42 0
0 51 0
0 51 0
0 51 0
0 31 0
0 42 0
0 31 0
0 36 0
0 42 0
0 42 0
0 23 0
0 51 0
0 51 0
0 42 0
0 42 0
0 51 0
0 51 0
0 255 0
0 36 0
0 63 0
0 63 0
0 36 0
0 63 0
0 63 0
0 85 0
0 51 0
0 51 0
0 85 0
0 63 0
0 31 0
0 36 0
0 36 0
0 51 0
0 31 0
0 51 0
0 63 0
0 31 0
0 42 0
0 85 0
0 85 0
0 127 0
0 36 0
0 63 0
0 42 0
0 63 0
0 28 0
0 51 0
0 23 0
0 85 0
0 63 0
0 36 0
0 85 0
0 42 0
0 85 0
0 63 0
0 51 0
0 42 0
0 36 0
0 42 0
0 42 0
0 25 0
0 51 0
0 21 0
0 28 0
0 36 0
0 31 0
0 63 0
0 42 0
0 36 0
0 42 0
0 51 0
0 36 0
0 127 0
0 51 0
0 42 0
0 36 0
0 63 0
0 51 0
0 31 0
0 31 0
0 36 0
0 42 0
0 63 0
0 51 0
241 255 162
0 36 0
0 42 0
0 42 0
0 51 0
0 63 0
0 31 0
0 42 0
0 36 0
0 51 0
0 36 0
0 28 0
0 42 0
0 31 0
0 63 0
0 25 0
0 42 0
0 63 0
0 42 0
0 42 0
0 42 0
0 25 0
0 63 0
0 25 0
0 31 0
0 51 0
0 51 0
0 63 0
0 63 0
0 36 0
0 63 0
0 36 0
0 31 0
0 36 0
0 42 0
0 63 0
0 51 0
0 42 0
0 36 0
0 51 0
0 51 0
0 36 0
0 63 0
0 25 0
0 31 0
0 28 0
0 31 0
0 127 0
0 85 0
0 36 0
0 36 0
0 28 0
0 36 0
0 51 0
0 31 0
0 19 0
0 25 0
0 31 0
0 31 0
0 85 0
0 63 0
0 63 0
0 51 0
0 42 0
0 51 0
0 63 0
0 25 0
0 36 0
0 25 0
0 31 0
0 31 0
0 31 0
0 42 0
0 31 0
0 51 0
0 42 0
0 127 0
0 25 0
0 25 0
0 31 0
0 31 0
0 51 0
0 42 0
0 51 0
0 85 0
0 63 0
0 36 0
0 85 0
241 255 162
0 42 0
0 42 0
0 42 0
0 63 0
0 42 0
0 127 0
0 85 0
0 63 0
0 23 0
0 36 0
0 31 0
0 42 0
0 21 0
0 31 0
0 51 0
0 127 0
0 51 0
0 51 0
0 31 0
0 31 0
0 51 0
0 127 0
0 42 0
0 42 0
0 36 0
0 31 0
0 42 0
0 36 0
0 63 0
0 63 0
0 63 0
0 51 0
0 31 0
0 36 0
0 42 0
0 127 0
0 51 0
0 36 0
0 31 0
0 31 0
0 51 0
0 42 0
0 31 0
0 85 0
0 51 0
0 63 0
0 31 0
0 25 0
0 63 0
0 51 0
0 127 0
0 28 0
0 42 0
0 127 0
0 31 0
0 63 0
0 21 0
0 25 0
0 21 0
0 127 0
0 36 0
0 42 0
0 63 0
0 63 0
0 31 0
0 63 0
0 36 0
0 42 0
0 31 0
0 36 0
0 28 0
0 51 0
0 42 0
0 85 0
0 63 0
0 31 0
0 85 0
0 42 0
0 25 0
0 36 0
0 31 0
0 36 0
0 63 0
0 36 0
0 25 0
0 63 0
0 85 0
0 28 0
0 85 0
0 42 0
0 25 0
0 31 0
0 255 0
0 31 0
0 63 0
0 63 0
0 36 0
0 31 0
0 31 0
0 36 0
0 28 0
0 36 0
0 85 0
0 85 0
0 28 0
0 36 0
0 42 0
0 36 0
0 42 0
0 51 0
0 28 0
0 42 0
0 42 0
0 85 0
0 63 0
0 51 0
0 25 0
0 51 0
0 36 0
0 42 0
0 63 0
0 85 0
0 63 0
0 42 0
0 17 0
0 31 0
0 85 0
0 51 0
0 42 0
0 42 0
0 36 0
0 36 0
0 28 0
0 25 0
0 63 0
0 42 0
0 42 0
0 51 0
0 42 0
0 51 0
0 42 0
0 51 0
0 51 0
0 28 0
0 85 0
0 85 0
0 25 0
0 51 0
0 42 0
0 36 0
0 36 0
0 31 0
0 42 0
0 127 0
0 63 0
0 51 0
0 42 0
0 63 0
0 51 0
0 36 0
0 51 0
0 85 0
0 51 0
0 23 0
0 25 0
0 42 0
0 85 0
0 42 0
0 51 0
0 31 0
0 31 0
0 42 0
0 42 0
0 51 0
0 63 0
0 31 0
0 42 0
0 42 0
0 36 0
0 85 0
0 23 0
0 127 0
0 36 0
0 31 0
0 63 0
0 28 0
0 31 0
0 51 0
0 63 0
0 36 0
0 36 0
0 28 0
0 255 0
0 51 0
0 42 0
0 36 0
0 31 0
0 42 0
0 63 0
0 42 0
0 63 0
0 51 0
0 42 0
0 31 0
0 42 0
0 51 0
0 23 0
0 42 0
0 63 0
0 36 0
0 42 0
0 18 0
0 42 0
0 63 0
0 42 0
0 51 0
0 127 0
0 36 0
0 28 0
0 36 0
0 63 0
0 42 0
0 28 0
0 42 0
0 51 0
0 42 0
0 63 0
0 51 0
0 63 0
0 63 0
0 36 0
0 63 0
0 25 0
0 42 0
0 127 0
0 63 0
0 23 0
0 31 0
0 51 0
0 23 0
0 36 0
0 63 0
0 63 0
0 51 0
0 85 0
0 85 0
0 36 0
0 51 0
0 51 0
0 51 0
0 36 0
0 31 0
0 23 0
0 36 0
0 42 0
0 28 0
0 36 0
0 63 0
0 23 0
0 31 0
0 63 0
0 42 0
0 63 0
0 63 0
0 28 0
0 51 0
0 51 0
0 63 0
0 63 0
0 42 0
0 127 0
0 127 0
0 63 0
0 51 0
0 127 0
0 36 0
0 51 0
0 63 0
0 36 0
0 42 0
0 63 0
0 36 0
0 51 0
0 63 0
0 51 0
0 36 0
0 28 0
0 42 0
0 31 0
0 36 0
0 63 0
0 21 0
0 42 0
0 85 0
0 42 0
0 51 0
0 63 0
0 63 0
0 51 0
0 31 0
0 31 0
0 51 0
0 28 0
0 51 0
0 23 0
0 85 0
0 31 0
0 25 0
0 63 0
0 31 0
0 28 0
0 23 0
0 42 0
0 51 0
0 63 0
0 63 0
0 36 0
0 19 0
0 28 0
0 36 0
0 25 0
0 63 0
0 42 0
0 19 0
0 127 0
0 51 0
0 28 0
0 31 0
0 85 0
0 63 0
0 85 0
0 42 0
0 21 0
0 42 0
0 127 0
0 85 0
0 85 0
0 63 0
0 42 0
0 36 0
0 31 0
0 42 0
0 63 0
0 51 0
0 63 0
0 51 0
0 85 0
0 255 0
0 63 0
0 63 0
0 42 0
0 42 0
0 85 0
0 42 0
0 36 0
0 36 0
0 31 0
0 36 0
0 51 0
0 31 0
0 36 0
0 28 0
0 127 0
0 51 0
0 85 0
0 31 0
0 31 0
0 42 0
0 85 0
0 31 0
0 36 0
0 42 0
0 36 0
0 127 0
0 31 0
0 255 0
0 51 0
0 85 0
0 25 0
0 31 0
0 31 0
0 31 0
0 85 0
0 63 0
0 51 0
0 85 0
0 63 0
0 51 0
0 31 0
0 63 0
0 28 0
0 36 0
0 127 0
0 51 0
0 255 0
0 51 0
0 42 0
0 51 0
0 25 0
0 31 0
0 28 0
0 63 0
0 31 0
0 63 0
0 85 0
0 42 0
0 42 0
0 36 0
241 255 162
0 63 0
0 51 0
0 85 0
0 21 0
0 127 0
0 42 0
0 31 0
0 63 0
0 42 0
0 31 0
0 28 0
0 63 0
0 63 0
0 51 0
0 63 0
0 63 0
0 42 0
0 85 0
0 63 0
0 31 0
0 36 0
0 31 0
0 23 0
0 42 0
0 31 0
0 36 0
0 85 0
0 36 0
0 28 0
0 63 0
0 36 0
0 36 0
0 28 0
0 36 0
0 31 0
0 31 0
0 51 0
0 63 0
0 63 0
0 36 0
0 85 0
0 36 0
0 42 0
0 31 0
0 42 0
0 28 0
0 85 0
0 36 0
0 63 0
0 63 0
0 42 0
0 63 0
0 63 0
0 36 0
0 42 0
0 51 0
0 28 0
0 85 0
0 42 0
0 31 0
0 28 0
0 63 0
0 51 0
0 31 0
0 36 0
0 23 0
0 42 0
0 42 0
0 63 0
0 31 0
0 31 0
0 42 0
0 85 0
0 51 0
0 51 0
0 63 0
0 127 0
0 31 0
0 36 0
0 51 0
0 36 0
0 36 0
0 31 0
0 51 0
0 63 0
0 21 0
0 28 0
0 36 0
0 51 0
0 31 0
0 42 0
0 42 0
0 51 0
0 85 0
0 63 0
0 36 0
0 51 0
0 23 0
0 63 0
0 51 0
0 28 0
0 42 0
0 28 0
0 28 0
0 63 0
0 63 0
0 63 0
0 63 0
0 28 0
0 36 0
0 31 0
0 36 0
0 85 0
0 28 0
0 63 0
0 36 0
0 31 0
0 51 0
0 63 0
0 63 0
0 28 0
0 42 0
0 51 0
0 255 0
0 28 0
0 127 0
0 63 0
0 51 0
0 36 0
0 63 0
0 42 0
0 36 0
0 51 0
0 63 0
0 63 0
0 85 0
0 127 0
0 85 0
0 36 0
0 127 0
0 31 0
0 17 0
0 31 0
0 23 0
0 31 0
0 42 0
0 23 0
0 42 0
0 51 0
0 63 0
0 31 0
0 42 0
0 36 0
0 63 0
0 36 0
0 23 0
0 31 0
0 127 0
0 42 0
0 63 0
0 51 0
0 42 0
0 31 0
0 25 0
0 31 0
0 31 0
0 36 0
0 51 0
0 63 0
0 28 0
0 23 0
0 36 0
0 51 0
0 36 0
0 23 0
0 42 0
0 23 0
0 63 0
0 127 0
0 63 0
0 31 0
0 28 0
0 31 0
0 36 0
0 51 0
0 36 0
0 51 0
0 36 0
0 85 0
0 31 0
0 36 0
0 36 0
0 42 0
0 42 0
0 23 0
0 31 0
0 85 0
0 127 0
0 63 0
0 42 0
0 51 0
0 36 0
0 63 0
0 28 0
0 42 0
0 42 0
0 36 0
0 63 0
0 63 0
0 42 0
0 31 0
0 63 0
0 31 0
0 255 0
0 25 0
0 42 0
0 51 0
0 28 0
0 63 0
0 51 0
0 42 0
0 36 0
0 51 0
0 42 0
0 63 0
0 42 0
0 28 0
0 85 0
0 28 0
0 63 0
0 31 0
0 51 0
0 85 0
0 42 0
0 36 0
0 36 0
0 28 0
0 28 0
0 63 0
0 28 0
0 63 0
0 31 0
0 28 0
0 51 0
0 63 0
0 85 0
0 25 0
0 21 0
0 42 0
0 63 0
0 51 0
0 42 0
0 42 0
0 28 0
0 31 0
0 63 0
0 85 0
0 36 0
0 31 0
0 63 0
0 63 0
0 36 0
0 31 0
0 63 0
0 28 0
0 63 0
0 31 0
0 51 0
0 63 0
0 63 0
0 85 0
0 28 0
0 63 0
0 42 0
0 42 0
0 255 0
0 42 0
0 25 0
0 63 0
0 36 0
0 42 0
0 42 0
0 21 0
0 31 0
0 85 0
0 42 0
0 63 0
0 63 0
0 51 0
0 25 0
0 63 0
0 25 0
0 51 0
0 42 0
0 25 0
0 23 0
0 42 0
0 127 0
0 63 0
0 36 0
0 51 0
0 23 0
0 42 0
0 42 0
0 42 0
0 36 0
0 85 0
0 63 0
0 36 0
0 42 0
0 42 0
0 31 0
0 51 0
0 28 0
0 42 0
0 31 0
0 51 0
0 51 0
0 36 0
0 85 0
0 42 0
0 42 0
0 85 0
0 31 0
0 25 0
0 28 0
0 31 0
0 42 0
0 36 0
0 36 0
0 51 0
0 23 0
0 28 0
0 31 0
0 31 0
0 63 0
0 36 0
0 36 0
0 36 0
0 31 0
0 42 0
0 127 0
0 85 0
0 36 0
0 85 0
0 85 0
0 21 0
0 63 0
0 36 0
0 63 0
0 85 0
0 85 0
0 42 0
0 51 0
0 51 0
0 85 0
0 63 0
0 42 0
0 36 0
0 42 0
0 42 0
0 51 0
0 255 0
0 51 0
0 28 0
0 36 0
0 63 0
0 36 0
0 42 0
0 127 0
0 28 0
0 63 0
0 36 0
0 31 0
0 28 0
0 63 0
0 42 0
0 36 0
0 28 0
0 42 0
0 31 0
241 255 162
0 21 0
0 85 0
0 23 0
0 63 0
0 42 0
0 25 0
0 42 0
0 127 0
0 51 0
0 31 0
0 36 0
0 28 0
0 42 0
0 36 0
0 23 0
0 63 0
0 31 0
0 25 0
0 85 0
0 36 0
0 28 0
0 63 0
0 63 0
0 42 0
0 42 0
0 51 0
0 42 0
0 28 0
0 36 0
0 42 0
0 23 0
0 51 0
0 31 0
0 31 0
0 28 0
0 51 0
0 51 0
0 85 0
0 42 0
0 51 0
0 31 0
0 36 0
0 85 0
0 85 0
0 127 0
0 85 0
0 28 0
0 63 0
0 42 0
0 31 0
0 36 0
0 42 0
0 42 0
0 51 0
0 85 0
0 31 0
0 31 0
0 28 0
0 31 0
0 28 0
0 31 0
0 42 0
0 31 0
0 23 0
0 36 0
0 85 0
0 25 0
0 36 0
0 42 0
0 36 0
0 25 0
0 63 0
0 25 0
0 31 0
0 42 0
0 42 0
0 85 0
0 31 0
0 42 0
0 28 0
0 63 0
0 85 0
0 19 0
0 63 0
0 25 0
0 51 0
0 63 0
0 63 0
0 42 0
0 31 0
0 25 0
0 85 0
0 63 0
0 51 0
0 17 0
0 63 0
0 51 0
0 63 0
0 42 0
0 36 0
0 63 0
0 85 0
0 21 0
0 28 0
0 63 0
0 36 0
0 42 0
0 63 0
0 42 0
0 28 0
0 36 0
0 36 0
0 42 0
0 42 0
0 31 0
0 85 0
0 63 0
0 36 0
0 51 0
0 28 0
0 51 0
0 51 0
0 25 0
0 36 0
0 36 0
0 31 0
0 42 0
0 36 0
0 85 0
0 51 0
0 21 0
0 36 0
0 127 0
0 28 0
0 85 0
0 25 0
0 31 0
0 51 0
0 51 0
0 63 0
0 127 0
0 36 0
0 42 0
0 36 0
0 31 0
0 36 0
0 51 0
0 51 0
0 36 0
0 42 0
0 63 0
0 25 0
0 42 0
0 51 0
0 42 0
0 85 0
0 51 0
0 31 0
0 85 0
0 42 0
0 31 0
0 85 0
0 28 0
0 85 0
0 85 0
0 51 0
0 63 0
0 63 0
0 36 0
0 28 0
0 28 0
0 36 0
0 36 0
0 28 0
0 28 0
0 63 0
0 63 0
0 63 0
0 63 0
0 25 0
0 25 0
0 28 0
0 42 0
0 51 0
0 28 0
0 36 0
0 127 0
0 42 0
0 255 0
0 36 0
241 255 162
0 36 0
0 36 0
0 28 0
0 42 0
0 31 0
0 36 0
0 31 0
0 28 0
0 42 0
0 31 0
241 255 162
0 51 0
0 63 0
0 36 0
0 51 0
0 25 0
0 31 0
0 25 0
0 51 0
0 42 0
0 63 0
0 51 0
0 85 0
0 51 0
0 36 0
0 85 0
0 31 0
0 51 0
0 25 0
0 42 0
0 28 0
0 127 0
0 42 0
0 63 0
0 51 0
0 31 0
0 28 0
0 42 0
0 42 0
0 36 0
0 63 0
0 42 0
0 51 0
0 36 0
0 127 0
0 36 0
0 63 0
0 36 0
0 85 0
0 42 0
0 51 0
0 51 0
0 42 0
0 85 0
0 36 0
0 85 0
0 51 0
0 85 0
0 85 0
0 28 0
0 51 0
0 51 0
0 42 0
0 42 0
0 127 0
0 42 0
0 42 0
0 63 0
0 63 0
0 63 0
0 63 0
0 42 0
0 63 0
0 28 0
0 85 0
0 21 0
0 51 0
0 51 0
0 31 0
0 25 0
0 42 0
0 42 0
0 21 0
0 23 0
0 63 0
0 42 0
0 85 0
0 36 0
0 85 0
0 51 0
0 31 0
0 28 0
0 28 0
0 63 0
0 63 0
0 42 0
0 36 0
0 51 0
0 42 0
0 63 0
0 85 0
0 36 0
0 63 0
0 28 0
0 36 0
0 51 0
0 63 0
0 31 0
0 63 0
0 25 0
0 42 0
0 36 0
0 127 0
0 85 0
0 63 0
0 51 0
0 127 0
0 42 0
0 31 0
0 51 0
0 36 0
0 31 0
0 85 0
0 85 0
0 25 0
0 31 0
0 51 0
0 31 0
0 51 0
0 36 0
0 36 0
0 42 0
0 28 0
0 31 0
0 31 0
0 85 0
0 63 0
0 42 0
0 42 0
0 85 0
0 42 0
0 28 0
0 42 0
0 42 0
0 36 0
0 42 0
0 19 0
0 85 0
0 63 0
0 36 0
0 25 0
0 42 0
0 31 0
0 23 0
0 31 0
0 28 0
0 42 0
0 36 0
0 85 0
0 51 0
0 42 0
0 31 0
0 36 0
0 42 0
0 63 0
0 51 0
0 31 0
0 23 0
0 51 0
0 42 0
0 42 0
0 28 0
0 127 0
0 31 0
0 85 0
0 127 0
0 51 0
0 36 0
0 19 0
0 31 0
0 28 0
0 36 0
0 36 0
0 127 0
0 31 0
0 42 0
0 63 0
0 42 0
0 42 0
0 63 0
0 51 0
0 63 0
0 36 0
0 28 0
0 51 0
0 51 0
0 25 0
0 36 0
0 63 0
0 28 0
0 51 0
0 127 0
0 31 0
0 36 0
0 36 0
0 63 0
0 36 0
0 63 0
0 25 0
0 42 0
0 36 0
0 36 0
0 36 0
0 36 0
0 36 0
0 63 0
0 42 0
0 31 0
0 51 0
0 28 0
0 31 0
0 21 0
0 63 0
0 51 0
0 19 0
0 127 0
0 28 0
0 25 0
0 42 0
0 36 0
0 25 0
0 63 0
0 42 0
0 18 0
0 51 0
0 28 0
0 31 0
0 31 0
0 63 0
0 31 0
0 85 0
0 36 0
0 42 0
0 19 0
0 51 0
0 42 0
0 42 0
0 42 0
0 42 0
0 23 0
0 42 0
0 31 0
0 63 0
0 63 0
0 42 0
0 28 0
0 85 0
0 42 0
0 25 0
0 51 0
0 36 0
0 42 0
0 42 0
0 31 0
0 51 0
0 63 0
0 28 0
0 42 0
0 31 0
0 42 0
0 85 0
0 85 0
0 42 0
0 63 0
0 42 0
0 42 0
0 51 0
0 42 0
0 63 0
0 85 0
0 127 0
0 51 0
0 85 0
0 28 0
0 51 0
0 63 0
0 31 0
0 51 0
0 42 0
0 31 0
0 36 0
0 31 0
0 255 0
0 63 0
0 36 0
0 25 0
0 23 0
0 51 0
0 85 0
0 85 0
0 63 0
0 42 0
0 63 0
0 28 0
0 42 0
0 42 0
0 255 0
0 42 0
0 36 0
0 51 0
0 36 0
0 36 0
0 63 0
0 63 0
0 85 0
0 51 0
0 31 0
0 42 0
0 51 0
0 36 0
0 63 0
0 31 0
0 63 0
0 51 0
0 255 0
0 28 0
0 42 0
0 31 0
0 127 0
0 36 0
0 63 0
0 42 0
0 42 0
0 63 0
0 31 0
0 42 0
0 85 0
0 23 0
0 85 0
0 42 0
0 31 0
0 63 0
0 42 0
0 31 0
0 31 0
0 85 0
0 42 0
0 51 0
0 31 0
0 42 0
0 127 0
0 63 0
0 63 0
0 63 0
0 51 0
0 42 0
0 31 0
0 63 0
0 28 0
0 28 0
0 63 0
0 36 0
0 36 0
0 51 0
0 63 0
0 51 0
0 63 0
0 42 0
0 51 0
0 63 0
0 31 0
0 63 0
0 127 0
0 28 0
0 28 0
0 127 0
0 85 0
0 36 0
0 51 0
0 36 0
0 51 0
0 63 0
0 42 0
0 36 0
0 36 0
0 31 0
0 28 0
0 21 0
0 28 0
0 31 0
0 51 0
0 36 0
0 63 0
0 51 0
0 31 0
0 31 0
0 127 0
0 63 0
0 63 0
0 63 0
0 31 0
0 36 0
0 42 0
0 36 0
0 63 0
0 42 0
0 28 0
0 51 0
0 36 0
0 51 0
0 42 0
0 42 0
0 63 0
0 31 0
0 28 0
0 42 0
0 127 0
0 23 0
0 31 0
0 23 0
0 42 0
0 85 0
0 63 0
0 28 0
0 85 0
0 127 0
0 42 0
0 63 0
0 63 0
0 85 0
0 31 0
0 36 0
0 42 0
0 36 0
0 63 0
0 51 0
0 51 0
0 42 0
0 25 0
0 42 0
0 36 0
0 51 0
0 85 0
0 51 0
0 51 0
0 42 0
0 36 0
0 42 0
0 42 0
0 63 0
0 63 0
0 85 0
0 51 0
0 51 0
0 36 0
0 51 0
0 36 0
0 51 0
0 63 0
0 63 0
0 31 0
0 51 0
0 42 0
0 36 0
0 42 0
0 63 0
0 63 0
0 25 0
0 85 0
0 85 0
0 42 0
0 51 0
0 18 0
0 23 0
0 36 0
0 36 0
0 51 0
0 51 0
0 51 0
0 42 0
0 51 0
0 42 0
0 31 0
0 31 0
0 63 0
0 51 0
0 42 0
0 51 0
0 63 0
0 28 0
0 85 0
0 36 0
0 42 0
0 31 0
0 25 0
0 42 0
0 51 0
0 23 0
0 51 0
0 63 0
0 31 0
0 51 0
