P3
55 55
255
0 28 0
0 42 0
0 18 0
0 18 0
0 28 0
0 28 0
0 28 0
0 17 0
0 28 0
0 36 0
0 18 0
0 36 0
0 25 0
0 19 0
0 31 0
0 25 0
0 21 0
0 23 0
0 51 0
0 21 0
0 51 0
0 63 0
0 23 0
0 21 0
0 25 0
0 85 0
0 19 0
0 25 0
0 21 0
0 42 0
0 23 0
0 25 0
0 15 0
0 28 0
0 85 0
0 28 0
0 36 0
0 36 0
0 31 0
0 21 0
0 51 0
0 23 0
0 21 0
0 21 0
0 36 0
0 31 0
0 31 0
0 31 0
0 25 0
0 23 0
0 17 0
0 31 0
0 28 0
0 18 0
0 25 0
0 25 0
0 25 0
0 42 0
0 51 0
0 23 0
0 23 0
0 17 0
0 21 0
0 25 0
0 36 0
0 13 0
0 42 0
0 63 0
0 28 0
0 25 0
0 23 0
0 19 0
0 23 0
0 19 0
0 21 0
0 25 0
0 23 0
0 31 0
0 63 0
0 25 0
0 19 0
0 25 0
0 28 0
0 15 0
0 21 0
0 25 0
0 17 0
0 51 0
0 18 0
0 25 0
0 19 0
0 15 0
0 31 0
0 28 0
0 23 0
0 23 0
0 23 0
0 19 0
0 31 0
0 25 0
0 28 0
0 25 0
0 42 0
0 23 0
0 25 0
0 15 0
0 25 0
0 23 0
0 23 0
0 21 0
0 42 0
0 63 0
0 21 0
0 28 0
0 28 0
0 31 0
0 36 0
0 15 0
0 21 0
0 28 0
0 25 0
0 28 0
0 28 0
0 31 0
0 21 0
0 23 0
0 42 0
0 36 0
0 25 0
0 25 0
0 28 0
0 25 0
0 25 0
0 31 0
0 19 0
0 18 0
0 51 0
0 42 0
0 25 0
0 21 0
0 31 0
0 25 0
0 21 0
0 36 0
0 23 0
0 23 0
0 28 0
0 19 0
0 21 0
0 36 0
0 36 0
0 25 0
0 21 0
0 25 0
0 31 0
0 28 0
0 21 0
0 85 0
0 21 0
0 23 0
0 18 0
0 28 0
0 28 0
0 23 0
0 19 0
0 36 0
0 42 0
0 23 0
0 31 0
0 15 0
0 21 0
0 42 0
0 21 0
0 42 0
0 15 0
0 25 0
0 18 0
0 36 0
0 51 0
0 28 0
0 25 0
0 36 0
0 19 0
0 51 0
0 23 0
0 28 0
0 36 0
0 23 0
0 18 0
0 63 0
0 31 0
0 42 0
0 36 0
0 25 0
0 25 0
0 31 0
0 51 0
0 25 0
0 42 0
0 31 0
0 42 0
0 23 0
0 25 0
0 28 0
0 28 0
0 23 0
0 36 0
0 19 0
0 18 0
0 28 0
0 17 0
0 28 0
0 19 0
0 17 0
0 17 0
0 25 0
0 28 0
0 28 0
0 15 0
0 23 0
0 31 0
0 36 0
0 23 0
0 25 0
0 19 0
0 25 0
0 19 0
0 36 0
0 36 0
0 36 0
0 63 0
0 19 0
0 19 0
0 28 0
0 25 0
0 19 0
0 51 0
0 21 0
0 28 0
0 25 0
0 36 0
0 19 0
0 18 0
0 17 0
0 31 0
0 28 0
0 15 0
0 23 0
0 42 0
0 36 0
0 19 0
0 21 0
0 21 0
0 36 0
0 28 0
0 18 0
0 25 0
0 36 0
0 21 0
0 18 0
0 31 0
0 63 0
0 23 0
0 25 0
0 18 0
0 21 0
0 19 0
0 21 0
0 21 0
0 63 0
0 42 0
0 25 0
0 63 0
0 25 0
0 23 0
0 25 0
0 25 0
0 25 0
0 18 0
0 36 0
0 18 0
0 21 0
0 23 0
0 18 0
0 21 0
0 63 0
0 25 0
0 42 0
0 36 0
0 25 0
0 23 0
0 17 0
0 17 0
0 18 0
0 25 0
0 19 0
0 23 0
0 25 0
0 42 0
0 19 0
0 18 0
0 15 0
0 25 0
0 25 0
0 25 0
0 28 0
0 31 0
0 21 0
0 21 0
0 42 0
0 25 0
0 28 0
0 51 0
0 28 0
0 31 0
0 25 0
0 36 0
0 31 0
0 25 0
0 21 0
0 31 0
0 23 0
0 23 0
0 25 0
0 21 0
0 23 0
0 21 0
0 23 0
0 25 0
0 36 0
0 25 0
0 42 0
0 42 0
0 15 0
0 23 0
0 28 0
0 63 0
0 31 0
0 36 0
0 15 0
0 31 0
0 28 0
0 13 0
0 51 0
0 25 0
0 31 0
0 21 0
0 28 0
0 19 0
0 19 0
0 28 0
0 36 0
0 25 0
0 23 0
0 17 0
0 28 0
0 25 0
0 63 0
0 31 0
0 28 0
0 19 0
0 36 0
0 51 0
0 36 0
0 19 0
0 21 0
0 19 0
0 28 0
0 25 0
0 17 0
0 25 0
0 36 0
0 28 0
0 28 0
0 28 0
0 23 0
0 51 0
0 19 0
0 51 0
0 31 0
0 17 0
0 28 0
0 31 0
0 21 0
0 31 0
0 42 0
0 15 0
0 21 0
0 28 0
0 19 0
0 25 0
0 28 0
0 23 0
0 36 0
0 21 0
0 25 0
0 28 0
0 63 0
0 14 0
0 31 0
0 63 0
0 28 0
0 28 0
0 23 0
0 36 0
0 28 0
0 28 0
0 28 0
0 19 0
0 28 0
0 36 0
0 127 0
0 36 0
0 25 0
0 25 0
0 18 0
0 36 0
0 19 0
0 14 0
0 19 0
0 28 0
0 51 0
0 18 0
0 23 0
0 42 0
0 63 0
0 21 0
0 23 0
0 42 0
0 28 0
0 25 0
0 36 0
0 25 0
0 28 0
0 23 0
0 25 0
0 25 0
0 25 0
0 31 0
0 36 0
0 18 0
0 36 0
0 31 0
0 15 0
0 31 0
0 25 0
0 18 0
0 25 0
0 15 0
0 19 0
0 31 0
0 14 0
0 23 0
0 42 0
0 17 0
0 19 0
0 21 0
0 19 0
0 23 0
0 31 0
0 63 0
0 25 0
0 31 0
0 15 0
0 31 0
0 15 0
0 21 0
0 17 0
0 21 0
0 36 0
0 51 0
0 23 0
0 36 0
0 36 0
0 36 0
0 25 0
0 19 0
0 21 0
0 25 0
0 21 0
0 23 0
0 18 0
0 25 0
0 25 0
0 51 0
0 21 0
0 18 0
0 21 0
0 28 0
0 25 0
0 23 0
0 42 0
0 31 0
0 19 0
0 36 0
0 51 0
0 25 0
0 31 0
0 15 0
0 63 0
0 18 0
0 19 0
0 31 0
0 25 0
0 19 0
0 31 0
0 31 0
0 36 0
0 31 0
0 15 0
0 23 0
0 25 0
0 36 0
0 36 0
0 25 0
0 25 0
0 15 0
0 15 0
0 15 0
0 17 0
0 31 0
0 17 0
0 23 0
0 21 0
0 85 0
0 23 0
0 15 0
0 31 0
0 28 0
0 21 0
0 19 0
0 28 0
0 31 0
0 18 0
0 25 0
0 25 0
0 23 0
0 25 0
0 31 0
0 18 0
0 25 0
0 25 0
0 28 0
0 51 0
0 23 0
0 23 0
0 15 0
0 28 0
0 21 0
0 15 0
0 42 0
0 15 0
0 21 0
0 28 0
0 42 0
0 31 0
0 25 0
0 31 0
0 36 0
0 31 0
0 36 0
0 51 0
0 28 0
0 23 0
0 23 0
0 21 0
0 21 0
0 63 0
0 19 0
0 17 0
0 36 0
0 25 0
0 25 0
0 51 0
0 21 0
0 25 0
0 23 0
0 19 0
0 23 0
0 19 0
0 36 0
0 18 0
0 21 0
0 21 0
0 21 0
0 17 0
0 28 0
0 28 0
0 23 0
0 42 0
0 15 0
0 42 0
0 31 0
0 31 0
0 25 0
0 28 0
0 31 0
0 31 0
0 36 0
0 21 0
0 63 0
0 23 0
0 19 0
0 31 0
0 31 0
0 28 0
0 25 0
0 25 0
0 17 0
0 28 0
0 21 0
0 23 0
0 25 0
0 42 0
0 21 0
0 36 0
0 15 0
0 36 0
0 19 0
0 51 0
0 36 0
0 25 0
0 42 0
0 31 0
0 51 0
0 36 0
0 28 0
0 19 0
0 31 0
0 17 0
0 28 0
0 31 0
0 31 0
0 31 0
0 25 0
0 25 0
0 42 0
0 18 0
0 36 0
0 18 0
0 23 0
0 15 0
0 23 0
0 31 0
0 21 0
0 18 0
0 15 0
0 28 0
0 21 0
0 28 0
0 25 0
0 17 0
0 28 0
0 36 0
0 31 0
0 28 0
0 15 0
0 28 0
0 21 0
0 25 0
0 19 0
0 15 0
0 15 0
0 23 0
0 25 0
0 25 0
0 42 0
0 23 0
0 23 0
0 18 0
0 17 0
0 25 0
0 23 0
0 42 0
0 31 0
0 36 0
0 28 0
0 18 0
0 31 0
0 36 0
0 21 0
0 36 0
0 42 0
0 63 0
0 63 0
0 23 0
0 15 0
0 31 0
0 42 0
0 28 0
0 25 0
0 36 0
0 23 0
0 85 0
0 28 0
0 36 0
0 25 0
0 17 0
0 28 0
0 23 0
0 14 0
0 36 0
0 42 0
0 23 0
0 28 0
0 19 0
0 23 0
0 36 0
0 28 0
0 21 0
0 21 0
0 25 0
0 28 0
0 85 0
0 42 0
0 23 0
0 51 0
0 28 0
0 19 0
0 31 0
0 21 0
0 42 0
0 25 0
0 21 0
0 51 0
0 25 0
0 23 0
0 17 0
0 19 0
0 25 0
0 42 0
0 31 0
0 42 0
0 85 0
0 25 0
0 28 0
0 28 0
0 28 0
0 23 0
0 31 0
0 23 0
0 36 0
0 28 0
0 25 0
0 21 0
0 42 0
0 36 0
0 25 0
0 42 0
0 42 0
0 42 0
0 31 0
0 21 0
0 23 0
0 23 0
0 31 0
0 31 0
0 21 0
0 23 0
0 13 0
0 42 0
0 23 0
0 36 0
0 15 0
0 42 0
0 18 0
0 36 0
0 25 0
0 19 0
0 28 0
0 51 0
0 21 0
0 23 0
0 15 0
0 18 0
0 23 0
0 25 0
0 28 0
0 25 0
0 28 0
0 28 0
0 23 0
0 23 0
0 31 0
0 31 0
0 63 0
0 18 0
0 31 0
0 18 0
0 15 0
0 19 0
0 42 0
0 51 0
0 21 0
0 23 0
0 51 0
0 21 0
0 36 0
0 18 0
0 18 0
0 25 0
0 21 0
0 25 0
0 25 0
0 25 0
0 51 0
0 19 0
0 21 0
0 23 0
0 28 0
0 42 0
0 31 0
0 28 0
0 19 0
0 19 0
0 28 0
0 23 0
0 28 0
0 31 0
0 28 0
0 42 0
0 36 0
0 15 0
0 36 0
0 36 0
0 23 0
0 51 0
0 36 0
0 18 0
0 31 0
0 25 0
0 36 0
0 23 0
0 36 0
0 19 0
0 21 0
0 31 0
0 51 0
0 51 0
0 36 0
0 28 0
0 21 0
0 13 0
0 31 0
0 25 0
0 42 0
0 31 0
0 21 0
0 21 0
0 23 0
0 42 0
0 28 0
0 19 0
0 21 0
0 42 0
0 42 0
0 21 0
0 36 0
0 21 0
0 36 0
0 63 0
0 28 0
0 42 0
0 25 0
0 28 0
0 31 0
0 25 0
0 17 0
0 25 0
0 21 0
0 23 0
0 51 0
0 18 0
0 19 0
0 28 0
0 23 0
0 42 0
0 25 0
0 23 0
0 28 0
0 25 0
0 21 0
0 28 0
0 36 0
0 31 0
0 42 0
0 21 0
0 51 0
0 36 0
0 31 0
0 21 0
0 21 0
0 36 0
0 31 0
0 25 0
0 31 0
0 25 0
0 17 0
0 21 0
0 23 0
0 31 0
0 31 0
0 18 0
0 21 0
0 25 0
0 31 0
0 23 0
0 36 0
0 18 0
0 31 0
0 21 0
0 36 0
0 21 0
0 25 0
0 25 0
0 63 0
0 25 0
0 28 0
0 28 0
0 28 0
0 31 0
0 18 0
0 25 0
0 23 0
0 25 0
0 28 0
0 36 0
0 18 0
0 18 0
0 28 0
0 31 0
0 36 0
0 23 0
0 23 0
0 31 0
0 25 0
0 255 0
0 31 0
0 31 0
0 51 0
0 19 0
0 28 0
0 28 0
0 51 0
0 28 0
0 31 0
0 36 0
0 25 0
0 23 0
0 17 0
0 23 0
0 28 0
0 31 0
0 36 0
0 51 0
0 25 0
0 28 0
0 21 0
0 42 0
0 25 0
0 19 0
0 36 0
0 15 0
0 23 0
0 25 0
0 25 0
0 25 0
0 28 0
0 25 0
0 28 0
0 51 0
0 11 0
0 17 0
0 23 0
0 25 0
0 127 0
0 28 0
0 17 0
0 23 0
0 36 0
0 25 0
0 21 0
0 17 0
0 21 0
0 19 0
0 31 0
0 28 0
0 17 0
0 23 0
0 23 0
0 23 0
0 23 0
0 31 0
0 42 0
0 36 0
0 14 0
0 23 0
0 21 0
0 25 0
0 19 0
0 25 0
0 25 0
0 19 0
0 21 0
0 42 0
0 36 0
0 23 0
0 17 0
0 42 0
0 23 0
0 36 0
0 31 0
0 31 0
0 25 0
0 31 0
0 23 0
0 28 0
0 51 0
0 19 0
0 28 0
0 21 0
0 25 0
0 31 0
0 31 0
0 42 0
0 19 0
0 31 0
0 23 0
0 42 0
0 25 0
0 23 0
0 31 0
0 25 0
0 28 0
0 51 0
0 25 0
0 28 0
0 25 0
0 23 0
0 36 0
0 15 0
0 28 0
0 42 0
0 36 0
0 31 0
0 23 0
0 51 0
0 14 0
0 17 0
0 25 0
0 42 0
0 28 0
0 28 0
0 23 0
0 28 0
0 25 0
0 19 0
0 25 0
0 23 0
0 15 0
0 28 0
0 25 0
0 21 0
0 28 0
0 18 0
0 42 0
0 31 0
0 18 0
0 15 0
0 25 0
0 23 0
0 63 0
0 28 0
0 18 0
0 31 0
0 28 0
0 31 0
0 28 0
0 23 0
0 23 0
0 25 0
0 23 0
0 36 0
0 21 0
0 51 0
0 25 0
0 19 0
0 19 0
0 28 0
0 28 0
0 42 0
0 36 0
0 31 0
0 23 0
0 23 0
0 36 0
0 18 0
0 63 0
0 23 0
0 28 0
0 21 0
0 21 0
0 18 0
0 17 0
0 21 0
0 28 0
0 21 0
0 25 0
0 36 0
0 28 0
0 23 0
0 31 0
0 36 0
0 42 0
0 23 0
0 51 0
0 31 0
0 63 0
0 25 0
0 51 0
0 36 0
0 18 0
0 28 0
0 21 0
0 31 0
0 25 0
0 31 0
0 28 0
0 21 0
0 23 0
0 31 0
0 23 0
0 36 0
0 28 0
0 25 0
0 28 0
0 31 0
0 31 0
0 23 0
0 14 0
0 42 0
0 19 0
0 28 0
0 23 0
0 42 0
0 19 0
0 85 0
0 21 0
0 18 0
0 28 0
0 31 0
0 23 0
0 17 0
0 25 0
0 42 0
0 51 0
0 28 0
0 85 0
0 21 0
0 85 0
0 42 0
0 21 0
0 31 0
0 36 0
0 31 0
0 28 0
0 42 0
0 17 0
0 36 0
0 36 0
0 31 0
0 28 0
0 19 0
0 23 0
0 31 0
0 36 0
0 42 0
0 31 0
0 18 0
0 31 0
0 63 0
0 36 0
0 21 0
0 63 0
0 18 0
0 25 0
0 28 0
0 18 0
0 31 0
0 23 0
0 23 0
0 25 0
0 36 0
0 36 0
0 17 0
0 21 0
0 28 0
0 23 0
0 23 0
0 23 0
0 63 0
0 36 0
0 42 0
0 25 0
0 28 0
0 36 0
0 51 0
0 18 0
0 19 0
0 42 0
0 18 0
0 23 0
0 23 0
0 25 0
0 18 0
0 28 0
0 21 0
0 21 0
0 42 0
0 28 0
0 23 0
0 31 0
0 28 0
0 19 0
0 36 0
0 25 0
0 25 0
0 21 0
0 17 0
0 25 0
0 25 0
0 28 0
0 42 0
0 36 0
0 28 0
0 18 0
0 28 0
0 23 0
0 63 0
0 25 0
0 51 0
0 25 0
0 28 0
0 28 0
0 21 0
0 31 0
0 28 0
0 36 0
0 25 0
0 51 0
0 25 0
0 23 0
0 23 0
0 21 0
0 31 0
0 28 0
0 31 0
0 31 0
0 21 0
0 18 0
0 19 0
0 18 0
0 23 0
0 25 0
0 12 0
0 36 0
0 21 0
0 18 0
0 28 0
0 28 0
0 36 0
0 18 0
0 18 0
0 17 0
0 36 0
0 23 0
0 31 0
0 18 0
0 19 0
0 25 0
0 25 0
0 25 0
0 28 0
0 28 0
0 15 0
0 25 0
0 23 0
0 36 0
0 31 0
0 31 0
0 25 0
0 18 0
0 31 0
0 42 0
0 25 0
0 31 0
0 51 0
0 36 0
0 21 0
0 19 0
0 25 0
0 19 0
0 36 0
0 51 0
0 21 0
0 18 0
0 15 0
0 21 0
0 21 0
0 25 0
0 28 0
0 15 0
0 25 0
0 42 0
0 42 0
0 23 0
0 23 0
0 36 0
0 21 0
0 36 0
0 25 0
0 23 0
0 25 0
0 31 0
0 25 0
0 42 0
0 25 0
0 36 0
0 19 0
0 31 0
0 28 0
0 21 0
0 31 0
0 42 0
0 13 0
0 18 0
0 42 0
0 25 0
0 25 0
0 25 0
0 15 0
0 19 0
0 19 0
0 21 0
0 23 0
0 18 0
0 51 0
0 23 0
0 18 0
0 17 0
0 15 0
0 31 0
0 21 0
0 42 0
0 19 0
0 14 0
0 36 0
0 31 0
0 23 0
0 36 0
0 28 0
0 21 0
0 18 0
0 21 0
0 31 0
0 28 0
0 36 0
0 51 0
0 18 0
0 31 0
0 36 0
0 23 0
0 31 0
0 21 0
0 25 0
0 19 0
0 36 0
0 28 0
0 13 0
0 21 0
0 19 0
0 18 0
0 36 0
0 21 0
0 18 0
0 31 0
0 28 0
0 23 0
0 23 0
0 28 0
0 28 0
0 18 0
0 21 0
0 36 0
0 63 0
0 31 0
0 21 0
0 31 0
0 21 0
0 18 0
0 23 0
0 31 0
0 28 0
0 42 0
0 21 0
0 15 0
0 25 0
0 28 0
0 31 0
0 25 0
0 23 0
0 23 0
0 25 0
0 18 0
0 25 0
0 19 0
0 17 0
0 19 0
0 28 0
0 19 0
0 28 0
0 19 0
0 23 0
0 21 0
0 21 0
0 36 0
0 51 0
0 31 0
0 19 0
0 36 0
0 23 0
0 19 0
0 19 0
0 23 0
0 17 0
0 23 0
0 42 0
0 19 0
0 36 0
0 25 0
0 19 0
0 28 0
0 17 0
0 28 0
0 28 0
0 31 0
0 31 0
0 21 0
0 31 0
0 19 0
0 63 0
0 21 0
0 31 0
0 31 0
0 51 0
0 31 0
0 28 0
0 19 0
0 36 0
0 12 0
0 21 0
0 31 0
0 51 0
0 25 0
0 25 0
0 23 0
0 25 0
0 31 0
0 42 0
0 18 0
0 51 0
0 23 0
0 23 0
0 25 0
0 25 0
0 23 0
0 51 0
0 28 0
0 21 0
0 28 0
0 31 0
0 85 0
0 25 0
0 25 0
0 19 0
0 15 0
0 36 0
0 28 0
0 42 0
0 15 0
0 25 0
0 42 0
0 25 0
0 14 0
0 28 0
0 28 0
0 17 0
0 28 0
0 42 0
0 21 0
0 25 0
0 28 0
0 25 0
0 19 0
0 19 0
0 25 0
0 31 0
0 23 0
0 25 0
0 85 0
0 31 0
0 42 0
0 25 0
0 28 0
0 51 0
0 42 0
0 51 0
0 25 0
0 25 0
0 31 0
0 21 0
0 51 0
0 19 0
0 51 0
0 31 0
0 85 0
0 15 0
0 36 0
0 21 0
0 15 0
0 51 0
0 31 0
0 28 0
0 28 0
0 28 0
0 42 0
0 42 0
0 36 0
0 31 0
0 28 0
0 18 0
0 15 0
0 31 0
0 25 0
0 42 0
0 28 0
0 36 0
0 18 0
0 25 0
0 31 0
0 31 0
0 31 0
0 28 0
0 25 0
0 31 0
0 25 0
0 21 0
0 21 0
0 25 0
0 21 0
0 25 0
0 19 0
0 51 0
0 23 0
0 28 0
0 21 0
0 42 0
0 23 0
0 28 0
0 18 0
0 127 0
0 23 0
0 42 0
0 17 0
0 23 0
0 31 0
0 17 0
0 18 0
0 31 0
0 25 0
0 25 0
0 11 0
0 25 0
0 25 0
0 42 0
0 28 0
0 28 0
0 25 0
0 51 0
0 18 0
0 19 0
0 63 0
0 31 0
0 36 0
0 28 0
0 31 0
0 21 0
0 25 0
0 31 0
0 36 0
0 21 0
0 28 0
0 28 0
0 51 0
0 23 0
0 15 0
0 28 0
0 42 0
0 21 0
0 31 0
0 19 0
0 28 0
0 21 0
0 19 0
0 17 0
0 51 0
0 25 0
0 23 0
0 19 0
0 31 0
0 21 0
0 51 0
0 28 0
0 18 0
0 51 0
0 23 0
0 36 0
0 42 0
0 18 0
0 36 0
0 28 0
0 23 0
0 21 0
0 25 0
0 36 0
0 36 0
0 42 0
0 23 0
0 23 0
0 18 0
0 28 0
0 28 0
0 28 0
0 36 0
0 28 0
0 31 0
0 51 0
0 31 0
0 23 0
0 25 0
0 51 0
0 36 0
0 28 0
0 51 0
0 19 0
0 28 0
0 19 0
0 25 0
0 23 0
0 42 0
0 31 0
0 18 0
0 23 0
0 42 0
0 28 0
0 36 0
0 25 0
0 36 0
0 19 0
0 21 0
0 25 0
0 13 0
0 23 0
0 18 0
0 51 0
0 25 0
0 31 0
0 19 0
0 63 0
0 13 0
0 23 0
0 28 0
0 28 0
0 28 0
0 25 0
0 28 0
0 19 0
0 21 0
0 21 0
0 42 0
0 31 0
0 42 0
0 31 0
0 28 0
0 36 0
0 23 0
0 51 0
0 23 0
0 36 0
0 21 0
0 23 0
0 19 0
0 28 0
0 36 0
0 14 0
0 25 0
0 42 0
0 25 0
0 25 0
0 25 0
0 42 0
0 51 0
0 25 0
0 23 0
0 31 0
0 42 0
0 28 0
0 31 0
0 15 0
0 14 0
0 36 0
0 17 0
0 25 0
0 42 0
0 42 0
0 25 0
0 21 0
0 28 0
0 36 0
0 31 0
0 31 0
0 17 0
0 31 0
0 28 0
0 31 0
0 42 0
0 28 0
0 28 0
0 31 0
0 15 0
0 19 0
0 31 0
0 15 0
0 36 0
0 28 0
0 21 0
0 21 0
0 42 0
0 36 0
0 36 0
0 23 0
0 51 0
0 31 0
0 21 0
0 23 0
0 18 0
0 14 0
0 15 0
0 25 0
0 23 0
0 85 0
0 28 0
0 28 0
0 36 0
0 21 0
0 19 0
0 21 0
0 63 0
0 25 0
0 23 0
0 23 0
0 51 0
0 25 0
0 25 0
0 28 0
0 19 0
0 42 0
0 51 0
0 25 0
0 51 0
0 42 0
0 25 0
0 36 0
0 28 0
0 51 0
0 19 0
0 42 0
0 51 0
0 42 0
0 28 0
0 21 0
0 31 0
0 19 0
0 21 0
0 63 0
0 25 0
0 19 0
0 42 0
0 42 0
0 21 0
0 25 0
0 51 0
0 23 0
0 25 0
0 28 0
0 18 0
0 28 0
0 31 0
0 17 0
0 18 0
0 28 0
0 23 0
0 28 0
0 31 0
0 23 0
0 42 0
0 19 0
0 28 0
0 25 0
0 18 0
0 19 0
0 19 0
0 25 0
0 17 0
0 19 0
0 17 0
0 19 0
0 42 0
0 23 0
0 36 0
0 31 0
0 21 0
0 42 0
0 21 0
0 63 0
0 51 0
0 42 0
0 25 0
0 31 0
0 25 0
0 28 0
0 23 0
0 31 0
0 31 0
0 31 0
0 51 0
0 19 0
0 23 0
0 25 0
0 42 0
0 19 0
0 42 0
0 23 0
0 31 0
0 31 0
0 21 0
0 31 0
0 17 0
0 28 0
0 42 0
0 21 0
0 19 0
0 31 0
0 23 0
0 25 0
0 51 0
0 23 0
0 31 0
0 42 0
0 42 0
0 23 0
0 25 0
0 42 0
0 51 0
0 21 0
0 51 0
0 31 0
0 21 0
0 21 0
0 31 0
0 31 0
0 31 0
0 17 0
0 21 0
0 31 0
0 21 0
0 21 0
0 23 0
0 23 0
0 19 0
0 18 0
0 19 0
0 15 0
0 18 0
0 36 0
0 18 0
0 28 0
0 18 0
0 28 0
0 36 0
0 18 0
0 31 0
0 25 0
0 31 0
0 21 0
0 36 0
0 18 0
0 19 0
0 25 0
0 17 0
0 28 0
0 51 0
0 21 0
0 23 0
0 51 0
0 18 0
0 18 0
0 42 0
0 36 0
0 15 0
0 31 0
0 28 0
0 25 0
0 28 0
0 23 0
0 19 0
0 36 0
0 31 0
0 25 0
0 25 0
0 25 0
0 36 0
0 18 0
0 17 0
0 28 0
0 31 0
0 21 0
0 42 0
0 15 0
0 36 0
0 25 0
0 36 0
0 42 0
0 25 0
0 36 0
0 51 0
0 28 0
0 23 0
0 51 0
0 23 0
0 21 0
0 31 0
0 23 0
0 31 0
0 23 0
0 17 0
0 25 0
0 28 0
0 23 0
0 31 0
0 42 0
0 25 0
0 25 0
0 25 0
0 36 0
0 19 0
0 42 0
0 63 0
0 42 0
0 25 0
0 28 0
0 31 0
0 21 0
0 36 0
0 31 0
0 23 0
0 31 0
0 51 0
0 21 0
0 15 0
0 21 0
0 31 0
0 36 0
0 31 0
0 21 0
0 31 0
0 23 0
0 18 0
0 28 0
0 23 0
0 28 0
0 23 0
0 25 0
0 36 0
0 17 0
0 15 0
0 28 0
0 23 0
0 21 0
0 21 0
0 21 0
0 51 0
0 31 0
0 63 0
0 23 0
0 51 0
0 31 0
0 12 0
0 42 0
0 25 0
0 19 0
0 36 0
0 18 0
0 63 0
0 23 0
0 19 0
0 18 0
0 42 0
0 19 0
0 19 0
0 36 0
0 25 0
0 36 0
0 18 0
0 23 0
0 36 0
0 36 0
0 21 0
0 25 0
0 85 0
0 36 0
0 21 0
0 15 0
0 23 0
0 25 0
0 19 0
0 23 0
0 31 0
0 15 0
0 51 0
0 19 0
0 25 0
0 51 0
0 31 0
0 31 0
0 18 0
0 21 0
0 31 0
0 31 0
0 51 0
0 31 0
0 36 0
0 28 0
0 28 0
0 25 0
0 25 0
0 15 0
0 31 0
0 19 0
0 23 0
0 21 0
0 25 0
0 36 0
0 23 0
0 31 0
0 42 0
0 23 0
0 25 0
0 28 0
0 25 0
0 19 0
0 31 0
0 23 0
0 15 0
0 23 0
0 19 0
0 14 0
0 17 0
0 25 0
0 25 0
0 36 0
0 25 0
0 63 0
0 28 0
0 36 0
0 51 0
0 25 0
0 15 0
0 21 0
0 18 0
0 19 0
0 51 0
0 25 0
0 25 0
0 23 0
0 28 0
0 25 0
0 25 0
0 28 0
0 18 0
0 36 0
0 36 0
0 36 0
0 21 0
0 21 0
0 21 0
0 25 0
0 36 0
0 19 0
0 23 0
0 21 0
0 19 0
0 25 0
0 25 0
0 28 0
0 15 0
0 21 0
0 23 0
0 28 0
0 28 0
0 15 0
0 21 0
0 25 0
0 42 0
0 21 0
0 25 0
0 31 0
0 18 0
0 36 0
0 31 0
0 21 0
0 31 0
0 85 0
0 42 0
0 18 0
0 25 0
0 19 0
0 18 0
0 36 0
0 28 0
0 28 0
0 23 0
0 19 0
0 42 0
0 25 0
0 18 0
0 28 0
0 23 0
0 19 0
0 21 0
0 17 0
0 17 0
0 23 0
0 18 0
0 21 0
0 19 0
0 28 0
0 25 0
0 28 0
0 25 0
0 42 0
0 17 0
0 17 0
0 36 0
0 19 0
0 31 0
0 15 0
0 21 0
0 31 0
0 25 0
0 17 0
0 28 0
0 31 0
0 51 0
0 23 0
0 19 0
0 63 0
0 36 0
0 28 0
0 28 0
0 63 0
0 42 0
0 15 0
0 25 0
0 23 0
0 36 0
0 23 0
0 19 0
0 63 0
0 31 0
0 25 0
0 15 0
0 19 0
0 28 0
0 28 0
0 28 0
0 19 0
0 21 0
0 36 0
0 21 0
0 42 0
0 25 0
0 18 0
0 23 0
0 42 0
0 14 0
0 25 0
0 19 0
0 36 0
0 19 0
0 36 0
0 25 0
0 21 0
0 51 0
0 23 0
0 42 0
0 31 0
0 15 0
0 19 0
0 28 0
0 31 0
0 31 0
0 17 0
0 23 0
0 25 0
0 23 0
0 31 0
0 63 0
0 18 0
0 25 0
0 36 0
0 28 0
0 15 0
0 21 0
0 51 0
0 21 0
0 19 0
0 28 0
0 23 0
0 18 0
0 19 0
0 31 0
0 36 0
0 36 0
0 31 0
0 15 0
0 18 0
0 21 0
0 23 0
0 36 0
0 19 0
0 23 0
0 28 0
0 19 0
0 19 0
0 25 0
0 21 0
0 28 0
0 28 0
0 28 0
0 25 0
0 23 0
0 18 0
0 28 0
0 23 0
0 31 0
0 28 0
0 28 0
0 19 0
0 23 0
0 25 0
0 36 0
0 17 0
0 23 0
0 31 0
0 18 0
0 18 0
0 31 0
0 25 0
0 23 0
0 23 0
0 21 0
0 19 0
0 51 0
0 25 0
0 23 0
0 31 0
0 42 0
0 51 0
0 31 0
0 36 0
0 42 0
0 25 0
0 18 0
0 19 0
0 42 0
0 31 0
0 28 0
0 42 0
0 21 0
0 21 0
0 36 0
0 25 0
0 36 0
0 19 0
0 14 0
0 25 0
0 51 0
0 36 0
0 25 0
0 17 0
0 31 0
0 36 0
0 42 0
0 18 0
0 31 0
0 17 0
0 19 0
0 42 0
0 19 0
0 42 0
0 42 0
0 28 0
0 28 0
0 19 0
0 17 0
0 21 0
0 28 0
0 25 0
0 18 0
0 23 0
0 36 0
0 23 0
0 31 0
0 42 0
0 25 0
0 19 0
0 23 0
0 51 0
0 25 0
0 31 0
0 23 0
0 36 0
0 31 0
0 51 0
0 21 0
0 31 0
0 28 0
0 23 0
0 31 0
0 28 0
0 18 0
0 28 0
0 25 0
0 21 0
0 28 0
0 25 0
0 21 0
0 19 0
0 18 0
0 23 0
0 36 0
0 25 0
0 21 0
0 23 0
0 31 0
0 42 0
0 15 0
0 25 0
0 25 0
0 28 0
0 25 0
0 21 0
0 19 0
0 36 0
0 19 0
0 21 0
0 19 0
0 23 0
0 42 0
0 13 0
0 21 0
0 36 0
0 85 0
0 18 0
0 13 0
0 21 0
0 85 0
0 36 0
0 18 0
0 51 0
0 31 0
0 36 0
0 25 0
0 28 0
0 19 0
0 31 0
0 25 0
0 18 0
0 23 0
0 21 0
0 42 0
0 28 0
0 17 0
0 23 0
0 42 0
0 28 0
0 28 0
0 36 0
0 23 0
0 23 0
0 31 0
0 23 0
0 28 0
0 25 0
0 31 0
0 36 0
0 25 0
0 21 0
0 25 0
0 17 0
0 85 0
0 23 0
0 18 0
0 15 0
0 31 0
0 25 0
0 63 0
0 28 0
0 51 0
0 17 0
0 42 0
0 25 0
0 42 0
0 25 0
0 23 0
0 25 0
0 23 0
0 23 0
0 51 0
0 21 0
0 19 0
0 23 0
0 28 0
0 28 0
0 21 0
0 63 0
0 36 0
0 36 0
0 25 0
0 28 0
0 28 0
0 25 0
0 31 0
0 18 0
0 15 0
0 31 0
0 25 0
0 31 0
0 42 0
0 15 0
0 25 0
0 31 0
0 25 0
0 31 0
0 17 0
0 21 0
0 28 0
0 28 0
0 42 0
0 19 0
0 21 0
0 42 0
0 31 0
0 23 0
0 31 0
0 28 0
0 21 0
0 31 0
0 36 0
0 28 0
0 31 0
0 25 0
0 25 0
0 19 0
0 23 0
0 31 0
0 42 0
0 36 0
0 15 0
0 36 0
0 23 0
0 23 0
0 28 0
0 31 0
0 28 0
0 63 0
0 21 0
0 15 0
0 31 0
0 63 0
0 23 0
0 23 0
0 15 0
0 31 0
0 31 0
0 18 0
0 19 0
0 15 0
0 15 0
0 31 0
0 18 0
0 25 0
0 19 0
0 19 0
0 42 0
0 51 0
0 36 0
0 25 0
0 21 0
0 21 0
0 25 0
0 28 0
0 51 0
0 19 0
0 28 0
0 25 0
0 42 0
0 21 0
0 36 0
0 21 0
0 42 0
0 31 0
0 25 0
0 28 0
0 23 0
0 42 0
0 42 0
0 42 0
0 15 0
0 42 0
0 85 0
0 25 0
0 23 0
0 63 0
0 28 0
0 23 0
0 31 0
0 42 0
0 23 0
0 28 0
0 18 0
0 25 0
0 23 0
0 85 0
0 18 0
0 19 0
0 21 0
0 23 0
0 25 0
0 63 0
0 28 0
0 25 0
0 23 0
0 21 0
0 31 0
0 21 0
0 36 0
0 85 0
0 18 0
0 42 0
0 28 0
0 19 0
0 28 0
0 28 0
0 31 0
0 19 0
0 15 0
0 28 0
0 28 0
0 31 0
0 19 0
0 18 0
0 23 0
0 42 0
0 36 0
0 21 0
0 28 0
0 31 0
0 36 0
0 21 0
0 85 0
0 28 0
0 18 0
0 28 0
0 28 0
0 18 0
0 19 0
0 25 0
0 42 0
0 36 0
0 28 0
0 25 0
0 25 0
0 25 0
0 25 0
0 28 0
0 42 0
0 14 0
0 28 0
0 19 0
0 25 0
0 127 0
0 28 0
0 31 0
0 31 0
0 28 0
0 31 0
0 19 0
0 23 0
0 25 0
0 25 0
0 19 0
0 28 0
0 28 0
0 63 0
0 19 0
0 36 0
0 18 0
0 31 0
0 25 0
0 42 0
0 21 0
0 51 0
0 25 0
0 42 0
0 31 0
0 15 0
0 25 0
0 18 0
0 23 0
0 42 0
0 42 0
0 15 0
0 23 0
0 18 0
0 31 0
0 31 0
0 25 0
0 28 0
0 63 0
0 36 0
0 19 0
0 28 0
0 25 0
0 42 0
0 21 0
0 51 0
0 25 0
0 14 0
0 42 0
0 28 0
0 25 0
0 51 0
0 23 0
0 28 0
0 21 0
0 31 0
0 31 0
0 51 0
0 19 0
0 14 0
0 31 0
0 17 0
0 19 0
0 28 0
0 25 0
0 19 0
0 28 0
0 18 0
0 25 0
0 31 0
0 28 0
0 85 0
0 17 0
0 28 0
0 42 0
0 31 0
0 28 0
0 23 0
0 25 0
0 42 0
0 19 0
0 23 0
0 19 0
0 18 0
0 42 0
0 51 0
0 23 0
0 28 0
0 23 0
0 21 0
0 23 0
0 51 0
0 28 0
0 25 0
0 25 0
0 36 0
0 31 0
0 19 0
0 51 0
0 11 0
0 18 0
0 19 0
0 42 0
0 31 0
0 28 0
0 31 0
0 42 0
0 18 0
0 42 0
0 19 0
0 25 0
0 25 0
0 28 0
0 23 0
0 31 0
0 28 0
0 19 0
0 63 0
0 36 0
0 18 0
0 17 0
0 23 0
0 28 0
0 31 0
0 25 0
0 42 0
0 15 0
0 63 0
0 25 0
0 15 0
0 17 0
0 21 0
0 51 0
0 18 0
0 25 0
0 28 0
0 19 0
0 25 0
0 23 0
0 25 0
0 31 0
0 36 0
0 42 0
0 19 0
0 25 0
0 23 0
0 28 0
0 19 0
0 28 0
0 42 0
0 31 0
0 31 0
0 42 0
0 25 0
0 21 0
0 15 0
0 63 0
0 23 0
0 17 0
0 23 0
0 36 0
0 25 0
0 25 0
0 36 0
0 19 0
0 19 0
0 28 0
0 23 0
0 42 0
0 14 0
0 25 0
0 31 0
0 21 0
0 51 0
0 28 0
0 23 0
0 12 0
0 36 0
0 31 0
0 15 0
0 28 0
0 42 0
0 36 0
0 63 0
0 36 0
0 25 0
0 31 0
0 18 0
0 25 0
0 15 0
0 25 0
0 25 0
0 21 0
0 28 0
0 21 0
0 51 0
0 28 0
0 25 0
0 31 0
0 36 0
0 28 0
0 23 0
0 31 0
0 36 0
0 19 0
0 42 0
0 36 0
0 19 0
0 21 0
0 23 0
0 31 0
0 51 0
0 21 0
0 36 0
0 21 0
0 31 0
0 36 0
0 36 0
0 28 0
0 21 0
0 31 0
0 63 0
0 36 0
0 25 0
0 28 0
0 21 0
0 51 0
0 23 0
0 31 0
0 23 0
0 42 0
0 25 0
0 28 0
0 19 0
0 36 0
0 18 0
0 51 0
0 36 0
0 25 0
0 18 0
0 28 0
0 42 0
0 17 0
0 19 0
0 31 0
0 36 0
0 19 0
0 25 0
0 23 0
0 63 0
0 63 0
0 23 0
0 28 0
0 28 0
0 25 0
0 19 0
0 23 0
0 28 0
0 23 0
0 31 0
0 42 0
0 21 0
0 18 0
0 19 0
0 25 0
0 28 0
0 19 0
0 25 0
0 31 0
0 31 0
0 17 0
0 21 0
0 51 0
0 63 0
0 21 0
0 36 0
0 21 0
0 25 0
0 36 0
0 23 0
0 25 0
0 19 0
0 31 0
0 19 0
0 25 0
0 23 0
0 42 0
0 31 0
0 25 0
0 31 0
0 28 0
0 23 0
0 19 0
0 51 0
0 23 0
0 21 0
0 31 0
0 18 0
0 25 0
0 23 0
0 25 0
0 18 0
0 25 0
0 25 0
0 28 0
0 28 0
0 17 0
0 23 0
0 31 0
0 28 0
0 25 0
0 28 0
0 23 0
0 63 0
0 23 0
0 19 0
0 42 0
0 36 0
0 31 0
0 23 0
0 23 0
0 23 0
0 31 0
0 17 0
0 42 0
0 23 0
0 23 0
0 19 0
0 31 0
0 31 0
0 23 0
0 19 0
0 19 0
0 21 0
0 21 0
0 25 0
0 28 0
0 23 0
0 42 0
0 21 0
0 36 0
0 51 0
0 25 0
0 42 0
0 23 0
0 15 0
0 51 0
0 36 0
0 21 0
0 28 0
0 42 0
0 51 0
0 21 0
0 42 0
0 23 0
0 19 0
0 63 0
0 25 0
0 18 0
0 19 0
0 17 0
0 23 0
0 36 0
0 31 0
0 25 0
0 21 0
0 36 0
0 25 0
0 23 0
0 23 0
0 25 0
0 25 0
0 28 0
0 42 0
0 21 0
0 18 0
0 28 0
0 21 0
0 31 0
0 51 0
0 28 0
0 25 0
0 36 0
0 19 0
0 42 0
0 21 0
0 23 0
0 17 0
0 15 0
0 28 0
0 36 0
0 25 0
0 42 0
0 19 0
0 28 0
0 36 0
0 36 0
0 25 0
0 28 0
0 19 0
0 15 0
0 18 0
0 31 0
0 31 0
0 21 0
0 28 0
0 36 0
0 31 0
0 85 0
0 23 0
0 42 0
0 25 0
0 42 0
